<svg width="108" height="65" viewBox="0 0 108 65" fill="none" xmlns="http://www.w3.org/2000/svg">
<g clip-path="url(#clip0_3_45)">
<path d="M10.9065 25.5864L12.5021 19.165L29.0255 12.4849L48.0903 23.1057L43.0275 43.4808L26.504 50.161L20.4955 46.8137C16.7508 38.5239 14.6512 33.8762 10.9065 25.5864Z" stroke="white" stroke-width="0.666667" stroke-miterlimit="10"/>
<path d="M10.216 24.11L12.363 17.6208L30.2043 11.9391L49.4436 24.2328L42.6312 44.8229C35.6638 47.0417 31.7574 48.2857 24.79 50.5045L18.7265 46.63C15.4029 37.8354 13.5395 32.9046 10.216 24.11Z" stroke="white" stroke-width="0.666667" stroke-miterlimit="10"/>
<path d="M9.59943 22.542L12.3304 16.0228C19.8096 14.242 24.0029 13.2435 31.4821 11.4627L50.7821 25.4893L42.1167 46.1745C34.6375 47.9554 30.4442 48.9538 22.965 50.7346L16.8824 46.314C14.0382 37.0304 12.4436 31.8255 9.59943 22.542Z" stroke="white" stroke-width="0.666667" stroke-miterlimit="10"/>
<path d="M9.06714 20.8851L12.4136 14.377L32.859 11.0646L52.0953 26.8777L41.4772 47.5276L21.0318 50.84L14.9692 45.8563C12.6643 36.1044 11.372 30.6369 9.06714 20.8851Z" stroke="white" stroke-width="0.666667" stroke-miterlimit="10"/>
<path d="M8.62982 19.1428L12.6217 12.6904L34.3339 10.7542L53.3722 28.4L40.7063 48.8731L18.994 50.8093L12.9938 45.248C11.2896 35.0533 10.3341 29.3375 8.62982 19.1428Z" stroke="white" stroke-width="0.666667" stroke-miterlimit="10"/>
<path d="M8.29852 17.3195L12.964 10.9709L35.9055 10.5411L54.6013 30.0575L39.7979 50.2015C30.8387 50.3693 25.8156 50.4634 16.8564 50.6313L10.9642 44.4805C9.92317 33.8734 9.33952 27.9265 8.29852 17.3195Z" stroke="white" stroke-width="0.666667" stroke-miterlimit="10"/>
<path d="M8.08453 15.4206L13.4498 9.22711C22.8699 9.69878 28.1514 9.96323 37.5715 10.4349L55.7703 31.8504L38.7465 51.5022L14.6248 50.2944L8.88926 43.5451C8.575 32.5618 8.3988 26.4039 8.08453 15.4206Z" stroke="white" stroke-width="0.666667" stroke-miterlimit="10"/>
<path d="M7.99927 13.4524L14.0879 7.46872L39.3287 10.4455L56.8661 33.7783L37.5471 52.7643L12.3063 49.7875L6.77917 42.4339C7.25565 31.1159 7.52279 24.7704 7.99927 13.4524Z" stroke="white" stroke-width="0.666667" stroke-miterlimit="10"/>
<path d="M8.05432 11.4221L14.8872 5.70627C25.1524 7.61067 30.9078 8.6784 41.1731 10.5828L57.8753 35.8398L36.1949 53.976L9.909 49.0995L4.64508 41.1395C5.97647 29.5341 6.72293 23.0275 8.05432 11.4221Z" stroke="white" stroke-width="0.666667" stroke-miterlimit="10"/>
<path d="M8.26109 9.33809L15.8557 3.95117C26.4951 6.64791 32.4602 8.15987 43.0996 10.8566L58.7836 38.0324L34.686 55.1249C24.0466 52.4282 18.0815 50.9162 7.44207 48.2195L2.49908 39.6547C4.74929 27.8153 6.01089 21.1775 8.26109 9.33809Z" stroke="white" stroke-width="0.666667" stroke-miterlimit="10"/>
<path d="M8.63132 7.20971L17.0018 2.21588C27.9758 5.75437 34.1286 7.73827 45.1026 11.2768L59.5764 40.3527L33.0172 56.198L4.91631 47.1371L0.354736 37.9735C3.58694 25.9595 5.39911 19.2237 8.63132 7.20971Z" stroke="white" stroke-width="0.666667" stroke-miterlimit="10"/>
<path d="M96.8682 35.6497L95.2726 42.0712C88.8198 44.68 85.202 46.1426 78.7492 48.7513L59.6844 38.1305L64.7473 17.7553C71.2001 15.1466 74.8179 13.684 81.2707 11.0752L87.2792 14.4225C91.0239 22.7123 93.1235 27.36 96.8682 35.6497Z" stroke="white" stroke-width="0.666667" stroke-miterlimit="10"/>
<path d="M97.5586 37.1262L95.4116 43.6154C88.4442 45.8342 84.5378 47.0782 77.5704 49.297L58.331 37.0034L65.1434 16.4133C72.1108 14.1945 76.0172 12.9505 82.9846 10.7317L89.0482 14.6062C92.3717 23.4008 94.2351 28.3316 97.5586 37.1262Z" stroke="white" stroke-width="0.666667" stroke-miterlimit="10"/>
<path d="M98.1752 38.6942L95.4442 45.2134L76.2925 49.7735L56.9926 35.7469L65.6579 15.0616C73.1371 13.2808 77.3304 12.2824 84.8096 10.5016L90.8922 14.9222C93.7364 24.2057 95.331 29.4107 98.1752 38.6942Z" stroke="white" stroke-width="0.666667" stroke-miterlimit="10"/>
<path d="M98.7075 40.3511L95.3611 46.8592L74.9157 50.1716L55.6794 34.3585L66.2975 13.7086C74.2819 12.415 78.7584 11.6897 86.7429 10.3962L92.8054 15.3799C95.1103 25.1318 96.4026 30.5992 98.7075 40.3511Z" stroke="white" stroke-width="0.666667" stroke-miterlimit="10"/>
<path d="M99.1449 42.0934L95.153 48.5458C86.6739 49.3019 81.9199 49.7258 73.4408 50.482L54.4025 32.8361L67.0685 12.3631C75.5476 11.6069 80.3016 11.183 88.7807 10.4268L94.7809 15.9882C96.4851 26.1829 97.4406 31.8987 99.1449 42.0934Z" stroke="white" stroke-width="0.666667" stroke-miterlimit="10"/>
<path d="M99.4761 43.9167L94.8107 50.2653C85.8514 50.4332 80.8284 50.5273 71.8691 50.6951L53.1733 31.1787L67.9768 11.0347C76.936 10.8669 81.9591 10.7728 90.9183 10.6049L96.8105 16.7557C97.8515 27.3628 98.4352 33.3097 99.4761 43.9167Z" stroke="white" stroke-width="0.666667" stroke-miterlimit="10"/>
<path d="M99.6901 45.8155L94.3248 52.0091L70.2031 50.8013L52.0043 29.3858L69.0281 9.73398C78.4482 10.2056 83.7297 10.4701 93.1498 10.9418L98.8854 17.6911C99.1996 28.6744 99.3758 34.8323 99.6901 45.8155Z" stroke="white" stroke-width="0.666667" stroke-miterlimit="10"/>
<path d="M99.7754 47.7838L93.6867 53.7675C83.8296 52.6049 78.3031 51.9532 68.446 50.7907L50.9085 27.4579L70.2276 8.47186C80.0847 9.63437 85.6112 10.2861 95.4683 11.4487L100.995 18.8023C100.519 30.1202 100.252 36.4658 99.7754 47.7838Z" stroke="white" stroke-width="0.666667" stroke-miterlimit="10"/>
<path d="M99.7204 49.8141L92.8875 55.5299L66.6016 50.6534L49.8994 25.3964L71.5798 7.26016C81.8451 9.16457 87.6004 10.2323 97.8657 12.1367L103.13 20.0968C101.798 31.7021 101.052 38.2087 99.7204 49.8141Z" stroke="white" stroke-width="0.666667" stroke-miterlimit="10"/>
<path d="M99.5136 51.8981L91.9189 57.285C81.2795 54.5883 75.3144 53.0763 64.675 50.3796L48.9911 23.2037L73.0887 6.11124L100.333 13.0167L105.276 21.5815C103.025 33.4208 101.764 40.0587 99.5136 51.8981Z" stroke="white" stroke-width="0.666667" stroke-miterlimit="10"/>
<path d="M99.1433 54.0265L90.7729 59.0203C79.7988 55.4818 73.6461 53.4979 62.672 49.9594L48.1983 20.8835L74.7575 5.03821C85.7316 8.5767 91.8843 10.5606 102.858 14.0991L107.42 23.2627C104.188 35.2767 102.376 42.0125 99.1433 54.0265Z" stroke="white" stroke-width="0.666667" stroke-miterlimit="10"/>
<path opacity="0.8" d="M33.105 14.8703L41.7216 28.0756L48.998 23.3277L59.549 39.4975L49.1734 46.2676L59.549 62.1687" stroke="white" stroke-width="1.66667" stroke-linecap="round" stroke-linejoin="round"/>
<path d="M37.7866 22.045L53.4861 11.801L47.019 1.88977" stroke="white" stroke-width="1.66667" stroke-linecap="round" stroke-linejoin="round"/>
<path d="M52.9909 29.2447L66.1541 20.6556L78.7679 39.9868" stroke="white" stroke-width="1.66667" stroke-linecap="round" stroke-linejoin="round"/>
<path d="M54.3612 42.8826L47.8234 32.8631L39.405 38.551L36.5601 40.4732" stroke="white" stroke-width="1.66667" stroke-linecap="round" stroke-linejoin="round"/>
<path d="M33.786 30.3709L39.405 38.551" stroke="white" stroke-width="1.66667" stroke-linecap="round" stroke-linejoin="round"/>
<path d="M30.676 32.102L33.4051 30.3212" stroke="white" stroke-width="1.66667" stroke-linecap="round" stroke-linejoin="round"/>
<path d="M70.0313 37.3528L64.7587 29.1437L74.827 22.574L77.5446 26.8206" stroke="white" stroke-width="1.66667" stroke-linecap="round" stroke-linejoin="round"/>
<path d="M48.2421 1.88976C48.2421 2.56526 47.6945 3.11286 47.019 3.11286C46.3435 3.11286 45.7959 2.56526 45.7959 1.88976C45.7959 1.21427 46.3435 0.666667 47.019 0.666667C47.6945 0.666667 48.2421 1.21427 48.2421 1.88976Z" fill="white" stroke="white" stroke-width="1.33333"/>
<path d="M34.3281 14.8703C34.3281 15.5458 33.7805 16.0934 33.105 16.0934C32.4295 16.0934 31.8819 15.5458 31.8819 14.8703C31.8819 14.1948 32.4295 13.6472 33.105 13.6472C33.7805 13.6472 34.3281 14.1948 34.3281 14.8703Z" fill="white" stroke="white" stroke-width="1.33333"/>
<path d="M71.7471 38.097C71.7471 38.7725 71.1995 39.3201 70.524 39.3201C69.8485 39.3201 69.3009 38.7725 69.3009 38.097C69.3009 37.4215 69.8485 36.8739 70.524 36.8739C71.1995 36.8739 71.7471 37.4215 71.7471 38.097Z" fill="white" stroke="white" stroke-width="1.33333"/>
<path d="M79.2056 27.6118C79.2056 28.2873 78.658 28.8349 77.9825 28.8349C77.307 28.8349 76.7594 28.2873 76.7594 27.6118C76.7594 26.9363 77.307 26.3887 77.9825 26.3887C78.658 26.3887 79.2056 26.9363 79.2056 27.6118Z" fill="white" stroke="white" stroke-width="1.33333"/>
<path d="M80.3063 40.9928C80.3063 41.6683 79.7587 42.2159 79.0832 42.2159C78.4077 42.2159 77.8601 41.6683 77.8601 40.9928C77.8601 40.3173 78.4077 39.7697 79.0832 39.7697C79.7587 39.7697 80.3063 40.3173 80.3063 40.9928Z" fill="white" stroke="white" stroke-width="1.33333"/>
<path d="M30.9374 32.749C30.9374 33.4245 30.3898 33.9721 29.7143 33.9721C29.0388 33.9721 28.4912 33.4245 28.4912 32.749C28.4912 32.0735 29.0388 31.5259 29.7143 31.5259C30.3898 31.5259 30.9374 32.0735 30.9374 32.749Z" fill="white" stroke="white" stroke-width="1.33333"/>
<path d="M36.2179 41.3332C36.2179 42.0087 35.6703 42.5563 34.9948 42.5563C34.3193 42.5563 33.7717 42.0087 33.7717 41.3332C33.7717 40.6577 34.3193 40.1101 34.9948 40.1101C35.6703 40.1101 36.2179 40.6577 36.2179 41.3332Z" fill="white" stroke="white" stroke-width="1.33333"/>
<path d="M60.772 62.1687C60.772 62.8442 60.2244 63.3918 59.5489 63.3918C58.8734 63.3918 58.3258 62.8442 58.3258 62.1687C58.3258 61.4932 58.8734 60.9456 59.5489 60.9456C60.2244 60.9456 60.772 61.4932 60.772 62.1687Z" fill="white" stroke="white" stroke-width="1.33333"/>
</g>
<defs>
<clipPath id="clip0_3_45">
<rect width="107.775" height="64.0585" fill="white"/>
</clipPath>
</defs>
</svg>
