<?xml version="1.0" encoding="UTF-8"?>
<svg id="uuid-3f59adf7-92ce-4754-86ae-532e9c6549e9" data-name="图层 2" xmlns="http://www.w3.org/2000/svg" width="28.515368mm" height="16.948812mm" xmlns:xlink="http://www.w3.org/1999/xlink" viewBox="0 0 80.830967 48.043877">
  <defs>
    <linearGradient id="uuid-25b59e0a-4428-48c1-9b92-afc686d65ce0" data-name="未命名的渐变 384" x1="-143.533546" y1="133.762103" x2="-103.691171" y2="133.762103" gradientTransform="translate(77.207481 144.088798) rotate(106.107893) scale(.673963 .655115) skewX(-10.622821)" gradientUnits="userSpaceOnUse">
      <stop offset="0" stop-color="#fff" stop-opacity=".8"/>
      <stop offset=".207837" stop-color="#0075be" stop-opacity=".43"/>
      <stop offset=".355903" stop-color="#d4def1" stop-opacity=".78"/>
      <stop offset=".373202" stop-color="#c0cbe8" stop-opacity=".827163"/>
      <stop offset=".654101" stop-color="#2a58a7" stop-opacity=".9"/>
    </linearGradient>
    <linearGradient id="uuid-d2a870c7-91bd-40ce-ae7c-2fb956e20dfe" data-name="未命名的渐变 384" x1="-143.533546" y1="133.762103" x2="-103.691171" y2="133.762103" gradientTransform="translate(70.974629 151.494727) rotate(110.496332) scale(.696552) skewX(-9.885772)" xlink:href="#uuid-25b59e0a-4428-48c1-9b92-afc686d65ce0"/>
    <linearGradient id="uuid-7c258444-d408-442e-bae9-f65a4c149d5b" data-name="未命名的渐变 384" x1="-143.533546" y1="133.762103" x2="-103.691171" y2="133.762103" gradientTransform="translate(63.885912 158.662879) rotate(114.949806) scale(.720717) skewX(-9.008319)" xlink:href="#uuid-25b59e0a-4428-48c1-9b92-afc686d65ce0"/>
    <linearGradient id="uuid-00bf8bb0-bce8-4c35-a5e2-97cd798aa328" data-name="未命名的渐变 384" x1="-143.533546" y1="133.762103" x2="-103.691171" y2="133.762103" gradientTransform="translate(55.91594 165.524948) rotate(119.458193) scale(.746701) skewX(-8.007343)" xlink:href="#uuid-25b59e0a-4428-48c1-9b92-afc686d65ce0"/>
    <linearGradient id="uuid-528abb17-4c1c-4db5-a73f-79e516de8133" data-name="未命名的渐变 384" x1="-143.533546" y1="133.762103" x2="-103.691171" y2="133.762103" gradientTransform="translate(47.043065 172.008861) rotate(124.009472) scale(.774757 .790327) skewX(-6.905968)" xlink:href="#uuid-25b59e0a-4428-48c1-9b92-afc686d65ce0"/>
    <linearGradient id="uuid-02184f4e-2273-454f-9951-60f395c5a980" data-name="未命名的渐变 384" x1="-143.533546" y1="133.762103" x2="-103.691171" y2="133.762103" gradientTransform="translate(37.249847 178.038942) rotate(128.590064) scale(.805136 .825292) skewX(-5.732971)" xlink:href="#uuid-25b59e0a-4428-48c1-9b92-afc686d65ce0"/>
    <linearGradient id="uuid-1e98fd70-eb6a-4c86-b9dd-a4ff24c478f6" data-name="未命名的渐变 384" x1="-143.533546" y1="133.762103" x2="-103.691171" y2="133.762103" gradientTransform="translate(26.523533 183.536108) rotate(133.185284) scale(.838085 .860385) skewX(-4.521548)" xlink:href="#uuid-25b59e0a-4428-48c1-9b92-afc686d65ce0"/>
    <linearGradient id="uuid-0f28e605-1233-4806-83d4-d8e5db4a4fe6" data-name="未命名的渐变 384" x1="-143.533546" y1="133.762103" x2="-103.691171" y2="133.762103" gradientTransform="translate(14.856535 188.418114) rotate(137.779886) scale(.873841 .895476) skewX(-3.307488)" xlink:href="#uuid-25b59e0a-4428-48c1-9b92-afc686d65ce0"/>
    <linearGradient id="uuid-2c6cfb05-0098-4210-a47a-8595593836b2" data-name="未命名的渐变 384" x1="-143.533546" y1="133.762103" x2="-103.691171" y2="133.762103" gradientTransform="translate(2.246924 192.599831) rotate(142.358648) scale(.912619 .930467) skewX(-2.126978)" xlink:href="#uuid-25b59e0a-4428-48c1-9b92-afc686d65ce0"/>
    <linearGradient id="uuid-aa5fa239-0c94-4457-b2d9-3763712158ef" data-name="未命名的渐变 384" x1="-143.533546" y1="133.762103" x2="-103.691171" y2="133.762103" gradientTransform="translate(-11.301071 195.993571) rotate(146.906955) scale(.954617 .965309) skewX(-1.014336)" xlink:href="#uuid-25b59e0a-4428-48c1-9b92-afc686d65ce0"/>
    <linearGradient id="uuid-cca90067-a45e-4f8d-897a-3cf6babb7e14" data-name="未命名的渐变 384" x1="-143.533546" y1="133.762103" x2="-103.691171" y2="133.762103" gradientTransform="translate(-25.776575 198.50946) rotate(151.411338)" xlink:href="#uuid-25b59e0a-4428-48c1-9b92-afc686d65ce0"/>
    <linearGradient id="uuid-16b8f9fd-99f2-4341-9c13-892406b4e8b0" data-name="未命名的渐变 274" x1="-134.200784" y1="102.309195" x2="-94.358409" y2="102.309195" gradientTransform="translate(20.571593 -82.582034) rotate(-73.892107) scale(.673963 .655115) skewX(-10.622821)" gradientUnits="userSpaceOnUse">
      <stop offset="0" stop-color="#7f1c1f" stop-opacity=".03"/>
      <stop offset=".009611" stop-color="#fff"/>
      <stop offset=".379299" stop-color="#7f1c1f" stop-opacity=".4"/>
      <stop offset=".495308" stop-color="#7f1c1f" stop-opacity=".9"/>
    </linearGradient>
    <linearGradient id="uuid-d4c414c1-54fc-405c-8ea6-e40a1c8d6444" data-name="未命名的渐变 274" x1="-134.189028" y1="102.165812" x2="-94.346654" y2="102.165812" gradientTransform="translate(26.592438 -88.267932) rotate(-69.503668) scale(.696552) skewX(-9.885772)" xlink:href="#uuid-16b8f9fd-99f2-4341-9c13-892406b4e8b0"/>
    <linearGradient id="uuid-00deafcf-8aa0-4636-8ada-a7177a12df60" data-name="未命名的渐变 274" x1="-134.186295" y1="102.026758" x2="-94.34392" y2="102.026758" gradientTransform="translate(33.332234 -93.68242) rotate(-65.050194) scale(.720717) skewX(-9.008319)" xlink:href="#uuid-16b8f9fd-99f2-4341-9c13-892406b4e8b0"/>
    <linearGradient id="uuid-ba50bc35-2283-4e55-ac0f-cc942c89f173" data-name="未命名的渐变 274" x1="-134.191892" y1="101.892553" x2="-94.349517" y2="101.892553" gradientTransform="translate(40.807048 -98.766085) rotate(-60.541807) scale(.746701) skewX(-8.007343)" xlink:href="#uuid-16b8f9fd-99f2-4341-9c13-892406b4e8b0"/>
    <linearGradient id="uuid-0faea505-32f9-4625-bedc-abcfb4326506" data-name="未命名的渐变 274" x1="-134.205132" y1="101.763645" x2="-94.362757" y2="101.763645" gradientTransform="translate(49.02939 -103.456667) rotate(-55.990528) scale(.774757 .790327) skewX(-6.905968)" xlink:href="#uuid-16b8f9fd-99f2-4341-9c13-892406b4e8b0"/>
    <linearGradient id="uuid-1db6635c-7c81-413f-990c-0d01788a3c63" data-name="未命名的渐变 274" x1="-134.225332" y1="101.640416" x2="-94.382958" y2="101.640416" gradientTransform="translate(58.007822 -107.689239) rotate(-51.409936) scale(.805136 .825292) skewX(-5.732971)" xlink:href="#uuid-16b8f9fd-99f2-4341-9c13-892406b4e8b0"/>
    <linearGradient id="uuid-e695b730-997c-42dd-9e10-4f62f4d2b4b3" data-name="未命名的渐变 274" x1="-134.251822" y1="101.523179" x2="-94.409447" y2="101.523179" gradientTransform="translate(67.74657 -111.396411) rotate(-46.814716) scale(.838085 .860385) skewX(-4.521548)" xlink:href="#uuid-16b8f9fd-99f2-4341-9c13-892406b4e8b0"/>
    <linearGradient id="uuid-7ff5bc8c-f7ff-498d-9c7c-1e2d02714545" data-name="未命名的渐变 274" x1="-134.283944" y1="101.41219" x2="-94.441569" y2="101.41219" gradientTransform="translate(78.245123 -114.508578) rotate(-42.220114) scale(.873841 .895476) skewX(-3.307488)" xlink:href="#uuid-16b8f9fd-99f2-4341-9c13-892406b4e8b0"/>
    <linearGradient id="uuid-b26a38a4-bce4-4a81-88c2-19759651eeb6" data-name="未命名的渐变 274" x1="-134.321058" y1="101.307642" x2="-94.478683" y2="101.307642" gradientTransform="translate(89.49783 -116.954189) rotate(-37.641352) scale(.912619 .930467) skewX(-2.126978)" xlink:href="#uuid-16b8f9fd-99f2-4341-9c13-892406b4e8b0"/>
    <linearGradient id="uuid-f64f7b6c-b18d-45ed-9995-59bf1a44c184" data-name="未命名的渐变 274" x1="-134.362542" y1="101.209677" x2="-94.520167" y2="101.209677" gradientTransform="translate(101.493507 -118.660071) rotate(-33.093045) scale(.954617 .965309) skewX(-1.014336)" xlink:href="#uuid-16b8f9fd-99f2-4341-9c13-892406b4e8b0"/>
    <linearGradient id="uuid-f5578c10-07d0-4134-996e-f828f6df29fe" data-name="未命名的渐变 274" x1="-134.407797" y1="101.118383" x2="-94.565422" y2="101.118383" gradientTransform="translate(114.215036 -119.551772) rotate(-28.588662)" xlink:href="#uuid-16b8f9fd-99f2-4341-9c13-892406b4e8b0"/>
    <linearGradient id="uuid-155e7be2-ddc8-47c6-bbf0-9d44b3d3a093" data-name="未命名的渐变 318" x1="34.11217" y1="3.676486" x2="44.653955" y2="3.676486" gradientTransform="translate(2.482224 45.55165) rotate(-33.124831)" gradientUnits="userSpaceOnUse">
      <stop offset="0" stop-color="#172a88" stop-opacity=".9"/>
      <stop offset="1" stop-color="#7f1c1f" stop-opacity=".9"/>
    </linearGradient>
    <linearGradient id="uuid-41e94866-61bf-4d20-b9c3-2fadb9d021ea" data-name="未命名的渐变 318" x1="36.887638" y1="-14.60955" x2="52.197183" y2="-14.60955" xlink:href="#uuid-155e7be2-ddc8-47c6-bbf0-9d44b3d3a093"/>
    <linearGradient id="uuid-6ea32915-0128-474d-8a78-e35b08c8fe84" data-name="未命名的渐变 318" x1="43.486823" y1="9.238024" x2="56.525044" y2="9.238024" xlink:href="#uuid-155e7be2-ddc8-47c6-bbf0-9d44b3d3a093"/>
    <linearGradient id="uuid-329f6332-4788-4579-85d3-17a87cbe519b" data-name="未命名的渐变 318" x1="28.564489" y1="5.223309" x2="40.008063" y2="5.223309" xlink:href="#uuid-155e7be2-ddc8-47c6-bbf0-9d44b3d3a093"/>
    <linearGradient id="uuid-0a65dd8e-3a57-4d90-b2de-b63f0d37b006" data-name="未命名的渐变 318" x1="30.962472" y1="-2.8612" x2="32.389176" y2="-2.8612" xlink:href="#uuid-155e7be2-ddc8-47c6-bbf0-9d44b3d3a093"/>
    <linearGradient id="uuid-49a71095-6a7d-4136-bde2-55e6703b68ae" data-name="未命名的渐变 318" x1="28.299506" y1="-6.768982" x2="31.993593" y2="-6.768982" xlink:href="#uuid-155e7be2-ddc8-47c6-bbf0-9d44b3d3a093"/>
    <linearGradient id="uuid-c9994c1c-96c7-4359-b638-1df1b97d9ed2" data-name="未命名的渐变 318" x1="50.867048" y1="9.00021" x2="61.186318" y2="9.00021" xlink:href="#uuid-155e7be2-ddc8-47c6-bbf0-9d44b3d3a093"/>
  </defs>
  <g id="uuid-b1daf7bb-7758-4786-8532-c2ffc8b8f3b0" data-name="图层 1">
    <g>
      <path d="m8.179833,19.189821l1.196706-4.816107,12.392585-5.010079,14.298544,7.965638-3.797109,15.281355-12.392585,5.010079-4.506362-2.510469c-2.808564-6.21731-4.383214-9.703107-7.191778-15.920417Z" style="fill: none; stroke: url(#uuid-25b59e0a-4428-48c1-9b92-afc686d65ce0); stroke-miterlimit: 10; stroke-width: .5px;"/>
      <path d="m7.66201,18.082507l1.610258-4.866905,13.380929-4.261249,14.429535,9.220258-5.109298,15.442534c-5.225578,1.664121-8.155351,2.597128-13.380929,4.261249l-4.547646-2.905878c-2.492658-6.595959-3.890192-10.29405-6.38285-16.890009Z" style="fill: none; stroke: url(#uuid-d2a870c7-91bd-40ce-ae7c-2fb956e20dfe); stroke-miterlimit: 10; stroke-width: .5px;"/>
      <path d="m7.199569,16.906487l2.048246-4.889405c5.609402-1.335618,8.75437-2.084446,14.363772-3.420064l14.474961,10.51995-6.499019,15.513928c-5.609402,1.335618-8.75437,2.084446-14.363772,3.420064l-4.561962-3.315492c-2.133132-6.96265-3.329094-10.86633-5.462225-17.82898Z" style="fill: none; stroke: url(#uuid-7c258444-d408-442e-bae9-f65a4c149d5b); stroke-miterlimit: 10; stroke-width: .5px;"/>
      <path d="m6.800327,15.663793l2.509815-4.881048,15.334057-2.484296,14.427228,11.859841-7.963563,15.48741-15.334057,2.484296-4.546919-3.737775c-1.72868-7.313906-2.697881-11.414522-4.426561-18.728428Z" style="fill: none; stroke: url(#uuid-00bf8bb0-bce8-4c35-a5e2-97cd798aa328); stroke-miterlimit: 10; stroke-width: .5px;"/>
      <path d="m6.472345,14.357075l2.99388-4.83926,16.28421-1.452159,14.278719,13.234375-9.499486,15.354818-16.28421,1.452159-4.500114-4.170976c-1.278186-7.646058-1.994813-11.932898-3.272999-19.578957Z" style="fill: none; stroke: url(#uuid-528abb17-4c1c-4db5-a73f-79e516de8133); stroke-miterlimit: 10; stroke-width: .5px;"/>
      <path d="m6.223891,12.989638l3.499112-4.761474,17.206148-.322364,14.021846,14.637288-11.102572,15.108004c-6.719419.125891-10.486729.196473-17.206148.322364l-4.419157-4.613122c-.780747-7.955252-1.218481-12.415445-1.999229-20.370697Z" style="fill: none; stroke: url(#uuid-02184f4e-2273-454f-9951-60f395c5a980); stroke-miterlimit: 10; stroke-width: .5px;"/>
      <path d="m6.063405,11.565476l4.023929-4.645143c7.065087.353751,11.026199.552086,18.091286.905837l13.649098,16.061595-12.767798,14.738892-18.091286-.905837-4.301681-5.06201c-.2357-8.237459-.367848-12.855875-.603548-21.093334Z" style="fill: none; stroke: url(#uuid-1e98fd70-eb6a-4c86-b9dd-a4ff24c478f6); stroke-miterlimit: 10; stroke-width: .5px;"/>
      <path d="m5.999457,10.089303l4.566479-4.487766,18.930556,2.232592,13.153105,17.49957-14.489294,14.239538-18.930556-2.232592-4.145363-5.515205c.357358-8.48849.557714-13.247648.915073-21.736137Z" style="fill: none; stroke: url(#uuid-0f28e605-1233-4806-83d4-d8e5db4a4fe6); stroke-miterlimit: 10; stroke-width: .5px;"/>
      <path d="m6.0407,8.566584l5.124638-4.286899c7.698962,1.428305,12.015464,2.229099,19.714426,3.657405l12.526691,18.942738-16.260314,13.602195-19.714426-3.657405-3.947941-5.970037c.998542-8.704004,1.558384-13.583993,2.556926-22.287997Z" style="fill: none; stroke: url(#uuid-2c6cfb05-0098-4210-a47a-8595593836b2); stroke-miterlimit: 10; stroke-width: .5px;"/>
      <path d="m6.195818,7.00356l5.695994-4.040186c7.979552,2.022555,12.453369,3.156521,20.432921,5.179077l11.762945,20.381868-18.073206,12.81938c-7.979552-2.022555-12.453369-3.156521-20.432921-5.179077l-3.707237-6.423597c1.687653-8.879533,2.633852-13.857933,4.321505-22.737466Z" style="fill: none; stroke: url(#uuid-aa5fa239-0c94-4457-b2d9-3763712158ef); stroke-miterlimit: 10; stroke-width: .5px;"/>
      <path d="m6.473472,5.407275l6.27784-3.745373c8.230556,2.65387,12.8451,4.141789,21.075656,6.795659l10.855288,21.80697-19.919385,11.883948-21.075656-6.795659L.266037,28.480086c2.424154-9.010493,3.783281-14.062317,6.207435-23.07281Z" style="fill: none; stroke: url(#uuid-cca90067-a45e-4f8d-897a-3cf6babb7e14); stroke-miterlimit: 10; stroke-width: .5px;"/>
    </g>
    <g>
      <path d="m72.651134,26.737308l-1.196706,4.816107c-4.839605,1.956557-7.552979,3.053521-12.392585,5.010079l-14.298544-7.965638,3.797109-15.281355c4.839605-1.956557,7.552979-3.053521,12.392585-5.010079l4.506362,2.510469c2.808564,6.21731,4.383214,9.703107,7.191778,15.920417Z" style="fill: none; stroke: url(#uuid-16b8f9fd-99f2-4341-9c13-892406b4e8b0); stroke-miterlimit: 10; stroke-width: .5px;"/>
      <path d="m73.168957,27.844623l-1.610258,4.866905c-5.225578,1.664121-8.155351,2.597128-13.380929,4.261249l-14.429535-9.220258,5.109298-15.442534c5.225578-1.664121,8.155351-2.597128,13.380929-4.261249l4.547646,2.905878c2.492658,6.595959,3.890192,10.29405,6.38285,16.890009Z" style="fill: none; stroke: url(#uuid-d4c414c1-54fc-405c-8ea6-e40a1c8d6444); stroke-miterlimit: 10; stroke-width: .5px;"/>
      <path d="m73.631398,29.020643l-2.048246,4.889405-14.363772,3.420064-14.474961-10.51995,6.499019-15.513928c5.609402-1.335618,8.75437-2.084446,14.363772-3.420064l4.561962,3.315492c2.133132,6.96265,3.329094,10.86633,5.462225,17.82898Z" style="fill: none; stroke: url(#uuid-00deafcf-8aa0-4636-8ada-a7177a12df60); stroke-miterlimit: 10; stroke-width: .5px;"/>
      <path d="m74.03064,30.263337l-2.509815,4.881048-15.334057,2.484296-14.427228-11.859841,7.963563-15.48741c5.988322-.970178,9.345735-1.514118,15.334057-2.484296l4.546919,3.737775c1.72868,7.313906,2.697881,11.414522,4.426561,18.728428Z" style="fill: none; stroke: url(#uuid-ba50bc35-2283-4e55-ac0f-cc942c89f173); stroke-miterlimit: 10; stroke-width: .5px;"/>
      <path d="m74.358622,31.570055l-2.99388,4.83926c-6.35938.567103-9.924831.885056-16.28421,1.452159l-14.278719-13.234375,9.499486-15.354818c6.35938-.567103,9.924831-.885056,16.28421-1.452159l4.500114,4.170976c1.278186,7.646058,1.994813,11.932898,3.272999,19.578957Z" style="fill: none; stroke: url(#uuid-0faea505-32f9-4625-bedc-abcfb4326506); stroke-miterlimit: 10; stroke-width: .5px;"/>
      <path d="m74.607076,32.937492l-3.499112,4.761474c-6.719419.125891-10.486729.196473-17.206148.322364l-14.021846-14.637288,11.102572-15.108004c6.719419-.125891,10.486729-.196473,17.206148-.322364l4.419157,4.613122c.780747,7.955252,1.218481,12.415445,1.999229,20.370697Z" style="fill: none; stroke: url(#uuid-1db6635c-7c81-413f-990c-0d01788a3c63); stroke-miterlimit: 10; stroke-width: .5px;"/>
      <path d="m74.767562,34.361654l-4.023929,4.645143-18.091286-.905837-13.649098-16.061595,12.767798-14.738892c7.065087.353751,11.026199.552086,18.091286.905837l4.301681,5.06201c.2357,8.237459.367848,12.855875.603548,21.093334Z" style="fill: none; stroke: url(#uuid-e695b730-997c-42dd-9e10-4f62f4d2b4b3); stroke-miterlimit: 10; stroke-width: .5px;"/>
      <path d="m74.831509,35.837827l-4.566479,4.487766c-7.392842-.871882-11.537714-1.360711-18.930556-2.232592l-13.153105-17.49957,14.489294-14.239538c7.392842.871882,11.537714,1.360711,18.930556,2.232592l4.145363,5.515205c-.357358,8.48849-.557714,13.247648-.915073,21.736137Z" style="fill: none; stroke: url(#uuid-7ff5bc8c-f7ff-498d-9c7c-1e2d02714545); stroke-miterlimit: 10; stroke-width: .5px;"/>
      <path d="m74.790267,37.360546l-5.124638,4.286899-19.714426-3.657405-12.526691-18.942738,16.260314-13.602195c7.698962,1.428305,12.015464,2.229099,19.714426,3.657405l3.947941,5.970037c-.998542,8.704004-1.558384,13.583993-2.556926,22.287997Z" style="fill: none; stroke: url(#uuid-b26a38a4-bce4-4a81-88c2-19759651eeb6); stroke-miterlimit: 10; stroke-width: .5px;"/>
      <path d="m74.635149,38.92357l-5.695994,4.040186c-7.979552-2.022555-12.453369-3.156521-20.432921-5.179077l-11.762945-20.381868,18.073206-12.81938,20.432921,5.179077,3.707237,6.423597c-1.687653,8.879533-2.633852,13.857933-4.321505,22.737466Z" style="fill: none; stroke: url(#uuid-f64f7b6c-b18d-45ed-9995-59bf1a44c184); stroke-miterlimit: 10; stroke-width: .5px;"/>
      <path d="m74.357495,40.519855l-6.27784,3.745373c-8.230556-2.65387-12.8451-4.141789-21.075656-6.795659l-10.855288-21.80697L56.068096,3.77865c8.230556,2.65387,12.8451,4.141789,21.075656,6.795659l3.421178,6.872735c-2.424154,9.010493-3.783281,14.062317-6.207435,23.07281Z" style="fill: none; stroke: url(#uuid-f5578c10-07d0-4134-996e-f828f6df29fe); stroke-miterlimit: 10; stroke-width: .5px;"/>
    </g>
  </g>
  <g id="uuid-19f11697-863a-4d8f-8f7c-f36a71d4b3c0" data-name="图层 2">
    <polyline points="24.82878 11.152737 31.291225 21.056723 36.748523 17.495784 44.661721 29.623113 36.880018 34.700748 44.661721 46.626554" style="fill: none; opacity: .8; stroke: url(#uuid-155e7be2-ddc8-47c6-bbf0-9d44b3d3a093); stroke-linecap: round; stroke-linejoin: round; stroke-width: 1.25px;"/>
    <polyline points="28.339958 16.533774 40.114572 8.850726 35.264206 1.417323" style="fill: none; stroke: url(#uuid-41e94866-61bf-4d20-b9c3-2fadb9d021ea); stroke-linecap: round; stroke-linejoin: round; stroke-width: 1.25px;"/>
    <polyline points="39.743166 21.933565 49.615589 15.491716 59.075929 29.99011" style="fill: none; stroke: url(#uuid-6ea32915-0128-474d-8a78-e35b08c8fe84); stroke-linecap: round; stroke-linejoin: round; stroke-width: 1.25px;"/>
    <polyline points="40.770869 32.16193 35.867499 24.647296 29.553719 28.913279 27.420073 30.354903" style="fill: none; stroke: url(#uuid-329f6332-4788-4579-85d3-17a87cbe519b); stroke-linecap: round; stroke-linejoin: round; stroke-width: 1.25px;"/>
    <path d="m25.3395,22.778158l4.214218,6.13512-4.214218-6.13512Z" style="fill: none; stroke: url(#uuid-0a65dd8e-3a57-4d90-b2de-b63f0d37b006); stroke-linecap: round; stroke-linejoin: round; stroke-width: 1.25px;"/>
    <line x1="23.006964" y1="24.076521" x2="25.053843" y2="22.740913" style="fill: none; stroke: url(#uuid-49a71095-6a7d-4136-bde2-55e6703b68ae); stroke-linecap: round; stroke-linejoin: round; stroke-width: 1.25px;"/>
    <polyline points="52.523477 28.014568 48.569032 21.857757 56.120243 16.93052 58.158404 20.115419" style="fill: none; stroke: url(#uuid-c9994c1c-96c7-4359-b638-1df1b97d9ed2); stroke-linecap: round; stroke-linejoin: round; stroke-width: 1.25px;"/>
    <circle cx="35.264206" cy="1.417323" r="1.417323" style="fill: #7f1c1f;"/>
    <circle cx="24.82878" cy="11.152737" r="1.417323" style="fill: #7f1c1f;"/>
    <circle cx="52.892964" cy="28.572787" r="1.417323" style="fill: #7f1c1f;"/>
    <circle cx="58.486895" cy="20.708886" r="1.417323" style="fill: #7f1c1f;"/>
    <circle cx="59.312403" cy="30.744607" r="1.417323" style="fill: #7f1c1f;"/>
    <circle cx="22.285705" cy="24.561717" r="1.417323" style="fill: #7f1c1f;"/>
    <circle cx="26.246103" cy="30.999945" r="1.417323" style="fill: #7f1c1f;"/>
    <circle cx="44.661721" cy="46.626554" r="1.417323" style="fill: #7f1c1f;"/>
  </g>
</svg>