<svg width="2351" height="2665" viewBox="0 0 2351 2665" fill="none" xmlns="http://www.w3.org/2000/svg">
<path fill-rule="evenodd" clip-rule="evenodd" d="M1317.75 256.5C1318.06 257.478 1318.73 258.145 1319.75 258.5C1320.72 256.604 1321.05 254.604 1320.75 252.5C1321.14 250.063 1322.3 248.063 1324.25 246.5C1349.49 269.746 1375.33 292.246 1401.75 314C1427.56 333.9 1456.56 347.4 1488.75 354.5C1489.05 355.15 1489.39 355.82 1489.75 356.5C1493.08 357.83 1496.42 357.83 1499.75 356.5C1499.63 355.89 1499.29 355.56 1498.75 355.5C1486.3 334.72 1472.3 315.05 1456.75 296.5C1457.28 292.971 1458.61 292.638 1460.75 295.5C1462.32 294.691 1463.99 294.357 1465.75 294.5C1550.71 317.05 1622.88 360.38 1682.25 424.5C1697.55 441.76 1707.55 461.76 1712.25 484.5C1712.66 492.81 1712.82 500.98 1712.75 509C1741.19 520.89 1769.86 532.22 1798.75 543C1816.95 549.17 1835.62 552.51 1854.75 553C1858.13 552.55 1861.46 551.88 1864.75 551C1880.76 543.83 1897.09 537.5 1913.75 532C1942.59 526.05 1968.59 532.05 1991.75 550C2006.5 564.01 2015 581.17 2017.25 601.5C2019.58 652.83 2005.58 699.17 1975.25 740.5C1970.58 746.5 1965.92 752.5 1961.25 758.5C1952.02 753.43 1944.19 746.77 1937.75 738.5C1925.24 771.18 1903.58 796.02 1872.75 813C1861.53 818.44 1850.2 823.61 1838.75 828.5C1837.32 828.27 1836.82 827.6 1837.25 826.5C1865.1 798.95 1872.43 766.62 1859.25 729.5C1857.25 725.35 1855.08 721.35 1852.75 717.5C1835.48 747.26 1811.48 770.1 1780.75 786C1768.52 792.24 1755.86 797.41 1742.75 801.5C1740.51 801.79 1738.51 801.46 1736.75 800.5C1752.57 788.1 1762.07 771.77 1765.25 751.5C1769.38 720.34 1756.88 699.17 1727.75 688C1694.79 678.24 1661.13 672.58 1626.75 671C1595.94 669.39 1565.27 670.73 1534.75 675C1519.89 677.4 1506.22 682.73 1493.75 691C1478.77 705.57 1475.6 722.4 1484.25 741.5C1491.71 751.3 1500.21 760.13 1509.75 768C1540.5 788.42 1569.84 810.75 1597.75 835C1615.13 852.04 1630.63 870.54 1644.25 890.5C1647.05 894.3 1650.21 897.8 1653.75 901C1660.81 902.89 1667.81 902.55 1674.75 900C1693.32 891.77 1707.82 878.93 1718.25 861.5C1721.34 855.15 1723.51 848.48 1724.75 841.5C1724.98 840.07 1725.65 839.57 1726.75 840C1730.35 845.57 1732.19 851.74 1732.25 858.5C1735.7 880.49 1732.03 901.16 1721.25 920.5C1717.42 926.33 1713.58 932.17 1709.75 938C1746.7 942.27 1774.87 928.77 1794.25 897.5C1795.22 891.95 1796.72 886.62 1798.75 881.5C1800.45 882.36 1801.61 883.7 1802.25 885.5C1812.13 927.32 1801.3 962.65 1769.75 991.5C1734.9 1020.76 1700.23 1050.26 1665.75 1080C1641.89 1096.85 1617.22 1112.52 1591.75 1127C1570.87 1139.54 1551.7 1154.37 1534.25 1171.5C1495.71 1212.39 1486.87 1259.06 1507.75 1311.5C1507.73 1315.96 1505.73 1317.29 1501.75 1315.5C1471.41 1293.17 1452.41 1263.5 1444.75 1226.5C1445.34 1222.03 1444.67 1218.03 1442.75 1214.5C1437.93 1174.1 1444.43 1135.43 1462.25 1098.5C1477.6 1071.8 1492.93 1045.13 1508.25 1018.5C1525.51 964.85 1508.01 927.35 1455.75 906C1411.82 893.39 1367.15 890.06 1321.75 896C1269.57 901.88 1219.57 915.54 1171.75 937C1162.04 941.85 1153.04 947.68 1144.75 954.5C1143.22 954.57 1142.22 953.91 1141.75 952.5C1155.14 928.59 1172.47 907.76 1193.75 890C1225.78 865.98 1260.78 847.15 1298.75 833.5C1300.67 833.21 1302.34 832.37 1303.75 831C1302.43 830.81 1301.1 830.97 1299.75 831.5C1279.9 835.31 1259.9 838.14 1239.75 840C1195.76 841.58 1152.42 836.92 1109.75 826C1074.25 817.29 1038.92 807.96 1003.75 798C986.518 794.41 969.188 791.57 951.748 789.5C949.278 788.68 946.608 788.18 943.748 788C944.828 786.67 945.498 785.17 945.748 783.5C984.868 767.39 1025.53 757.22 1067.75 753C1110.74 749.53 1153.74 746.2 1196.75 743C1223.18 740.18 1249.18 735.18 1274.75 728C1283.2 724.85 1291.53 721.52 1299.75 718C1210.93 712.51 1130.93 683.51 1059.75 631C1023.7 602.65 995.358 568.15 974.748 527.5C974.738 524.86 976.068 523.52 978.748 523.5C1026.01 549.54 1075.35 571.04 1126.75 588C1157.14 597.01 1188.14 602.68 1219.75 605C1227.93 605.82 1235.93 605.66 1243.75 604.5C1243.28 603.09 1242.28 602.43 1240.75 602.5C1208.71 590.65 1178.04 575.81 1148.75 558C1079.82 512.87 1016.98 460.04 960.248 399.5C957.288 395.53 953.948 391.87 950.248 388.5C949.658 387.52 949.988 386.85 951.248 386.5C1029.26 414.13 1108.42 437.96 1188.75 458C1221.74 467.55 1254.07 478.88 1285.75 492C1309.87 503.73 1334.2 514.9 1358.75 525.5C1359.55 526.88 1360.22 526.72 1360.75 525C1360.68 524.24 1360.35 523.74 1359.75 523.5C1332.68 467.26 1289.68 428.76 1230.75 408C1218.28 403.1 1205.62 398.77 1192.75 395C1144.46 382.84 1096.13 370.84 1047.75 359C993.948 344.4 941.948 325.07 891.748 301C847.598 279.003 808.098 250.503 773.248 215.5C746.718 187.614 725.718 155.947 710.248 120.5C703.708 103.68 699.038 86.346 696.248 68.5C694.418 52.491 692.578 36.491 690.748 20.5C693.608 21.834 696.108 23.834 698.248 26.5C703.518 35.437 709.188 44.103 715.248 52.5C756.918 101.177 802.758 145.344 852.748 185C900.338 219.128 952.338 244.794 1008.75 262C1013.73 263.33 1018.73 264.496 1023.75 265.5C1028.54 266.909 1028.87 266.242 1024.75 263.5C995.248 235.175 968.088 204.842 943.248 172.5C911.338 127.724 893.998 78.057 891.248 23.5C917.788 55.383 948.628 82.216 983.748 104C1003 120.256 1018.16 139.756 1029.25 162.5C1050.46 193.375 1077.62 217.541 1110.75 235C1146.37 253.035 1183.37 267.202 1221.75 277.5C1223.57 278.621 1225.57 279.121 1227.75 279C1226.88 277.955 1225.88 277.122 1224.75 276.5C1183.87 243.405 1153.7 202.405 1134.25 153.5C1116.62 103.066 1117.62 53.066 1137.25 3.5C1137.62 2.09 1138.45 1.09 1139.75 0.5C1140.87 2.369 1141.71 4.369 1142.25 6.5C1145 28.739 1151 50.073 1160.25 70.5C1197.03 145.69 1249.53 207.69 1317.75 256.5ZM1468.75 447.5C1481.96 454.97 1495.96 460.8 1510.75 465C1538.78 472.41 1567.11 478.41 1595.75 483C1629.47 490.58 1655.13 509.08 1672.75 538.5C1670.39 540.1 1667.73 541.1 1664.75 541.5C1639.18 545.81 1613.51 549.48 1587.75 552.5C1562.65 551.11 1540.65 542.27 1521.75 526C1498.69 503.72 1480.69 477.88 1467.75 448.5C1467.75 447.83 1468.08 447.5 1468.75 447.5Z" fill="white"/>
<path fill-rule="evenodd" clip-rule="evenodd" d="M2176.75 96.5C2173.42 96.5 2171.75 98.167 2171.75 101.5C2167.64 98.396 2164.31 94.729 2161.75 90.5C2167.13 91.734 2172.13 93.734 2176.75 96.5Z" fill="white"/>
<path fill-rule="evenodd" clip-rule="evenodd" d="M2176.75 96.5C2219.17 111.09 2248.34 139.423 2264.25 181.5C2275.42 213.713 2279.09 246.713 2275.25 280.5C2267.08 318.33 2246.25 346.83 2212.75 366C2196.2 374.3 2179.2 381.63 2161.75 388C2141.61 395.16 2124.44 406.66 2110.25 422.5C2097.83 436.85 2092.83 453.52 2095.25 472.5C2100.21 498.79 2113.37 519.95 2134.75 536C2153.65 548.9 2171.98 562.56 2189.75 577C2207.98 593.25 2219.48 613.42 2224.25 637.5C2226.08 672.99 2211.58 699.49 2180.75 717C2167.59 724.08 2154.59 731.41 2141.75 739C2127.62 748.45 2122.12 761.61 2125.25 778.5C2130.12 794.11 2134.79 809.77 2139.25 825.5C2146.54 878.41 2125.04 913.91 2074.75 932C2045.8 940.57 2016.47 947.57 1986.75 953C1971.47 956.87 1957.13 962.87 1943.75 971C1933.84 979.49 1927.84 990.15 1925.75 1003C1926.54 1007.93 1927.7 1012.76 1929.25 1017.5C1936.13 1031.93 1942.47 1046.6 1948.25 1061.5C1959.92 1101.98 1946.75 1131.15 1908.75 1149C1889.82 1157.45 1869.98 1161.29 1849.25 1160.5C1827.1 1159.1 1804.93 1158.6 1782.75 1159C1770.74 1159.46 1759.07 1161.62 1747.75 1165.5C1746.85 1164.79 1746.51 1163.79 1746.75 1162.5C1755.1 1149.64 1764.43 1137.47 1774.75 1126C1784.21 1117.77 1795.21 1113.1 1807.75 1112C1821.26 1111.4 1834.76 1111.57 1848.25 1112.5C1858.87 1112.35 1869.37 1111.19 1879.75 1109C1889.49 1105.59 1896.33 1099.09 1900.25 1089.5C1900.75 1087.19 1900.91 1084.86 1900.75 1082.5C1901.22 1079.92 1900.56 1077.92 1898.75 1076.5C1889.39 1057.92 1881.89 1038.59 1876.25 1018.5C1872.76 984.65 1884.26 957.15 1910.75 936C1928.89 922.1 1949.22 912.77 1971.75 908C2000.44 902.41 2028.77 895.41 2056.75 887C2069.2 882.37 2079.04 874.54 2086.25 863.5C2090.6 851.21 2090.6 838.87 2086.25 826.5C2081.31 812.02 2076.98 797.35 2073.25 782.5C2069.91 755.19 2077.74 731.69 2096.75 712C2103.42 706.67 2110.08 701.33 2116.75 696C2129.42 688.67 2142.08 681.33 2154.75 674C2165.39 666.88 2171.72 657.04 2173.75 644.5C2172.32 635.31 2168.49 627.31 2162.25 620.5C2158.47 617.68 2154.97 614.52 2151.75 611C2126.18 594.11 2102.35 574.95 2080.25 553.5C2061.33 531.98 2049.66 506.98 2045.25 478.5C2041.62 430.94 2059.12 393.44 2097.75 366C2107.77 358.99 2118.44 352.99 2129.75 348C2148.44 341.11 2166.78 333.44 2184.75 325C2213.56 308.83 2228.23 284.165 2228.75 251C2226.11 211.269 2215.61 173.769 2197.25 138.5C2188.92 126.011 2180.42 113.678 2171.75 101.5C2171.75 98.167 2173.42 96.5 2176.75 96.5Z" fill="white"/>
<path fill-rule="evenodd" clip-rule="evenodd" d="M1320.75 252.5C1321.05 254.604 1320.72 256.604 1319.75 258.5C1318.73 258.145 1318.06 257.478 1317.75 256.5C1319.23 255.552 1320.23 254.219 1320.75 252.5Z" fill="white"/>
<path fill-rule="evenodd" clip-rule="evenodd" d="M1024.75 263.5C1028.87 266.242 1028.54 266.909 1023.75 265.5C1024.08 264.833 1024.42 264.167 1024.75 263.5Z" fill="white"/>
<path fill-rule="evenodd" clip-rule="evenodd" d="M1224.75 276.5C1225.88 277.122 1226.88 277.955 1227.75 279C1225.57 279.121 1223.57 278.621 1221.75 277.5C1223.04 277.737 1224.04 277.404 1224.75 276.5Z" fill="white"/>
<path fill-rule="evenodd" clip-rule="evenodd" d="M1465.75 294.5C1463.99 294.357 1462.32 294.691 1460.75 295.5C1458.61 292.638 1457.28 292.971 1456.75 296.5C1453.72 294.984 1451.05 292.984 1448.75 290.5C1449.58 290.167 1450.42 289.833 1451.25 289.5C1456.22 291.084 1461.05 292.751 1465.75 294.5Z" fill="white"/>
<path fill-rule="evenodd" clip-rule="evenodd" d="M1488.75 354.5C1491.4 355.16 1494.07 355.83 1496.75 356.5C1497.67 356.46 1498.33 356.12 1498.75 355.5C1499.29 355.56 1499.63 355.89 1499.75 356.5C1496.42 357.83 1493.08 357.83 1489.75 356.5C1489.39 355.82 1489.05 355.15 1488.75 354.5Z" fill="white"/>
<path fill-rule="evenodd" clip-rule="evenodd" d="M1013.75 682.5C1013.86 684.51 1013.19 686.18 1011.75 687.5C942.488 711.6 884.988 752.27 839.248 809.5C812.738 842.74 791.078 879.07 774.248 918.5C763.628 947.32 756.628 976.98 753.248 1007.5C747.108 1088.17 775.278 1153.67 837.748 1204C812.498 1205.05 787.828 1201.05 763.748 1192C757.358 1189.09 751.688 1185.25 746.748 1180.5C746.248 1178.92 745.248 1178.42 743.748 1179C744.318 1179.99 744.978 1180.83 745.748 1181.5C765.828 1253.17 805.828 1311 865.748 1355C890.688 1370.94 915.348 1387.27 939.748 1404C950.708 1410.31 962.048 1415.81 973.748 1420.5C973.468 1421.78 972.798 1422.78 971.748 1423.5C943.568 1424.02 915.898 1420.52 888.748 1413C882.168 1411.04 875.828 1408.54 869.748 1405.5C868.738 1404.33 867.398 1403.66 865.748 1403.5C863.398 1400.62 862.568 1400.96 863.248 1404.5C863.628 1405.06 864.128 1405.39 864.748 1405.5C889.348 1446.29 920.348 1481.79 957.748 1512C1020.77 1561.21 1088.77 1602.87 1161.75 1637C1226.1 1665.56 1291.1 1692.56 1356.75 1718C1434.78 1750.52 1511.11 1786.52 1585.75 1826C1609.35 1837.09 1634.01 1844.75 1659.75 1849C1675.81 1849.92 1691.81 1849.42 1707.75 1847.5C1710.33 1847.03 1712.33 1847.69 1713.75 1849.5C1697.27 1871.46 1675.6 1885.62 1648.75 1892C1642.38 1893.48 1636.05 1893.64 1629.75 1892.5C1620.3 1888.28 1619.64 1889.28 1627.75 1895.5C1642.57 1919.81 1657.41 1944.14 1672.25 1968.5C1696.68 2005.41 1730.85 2027.08 1774.75 2033.5C1776.42 2034.17 1778.08 2034.83 1779.75 2035.5C1763.64 2044.55 1746.64 2051.39 1728.75 2056C1716.79 2057.53 1704.79 2057.87 1692.75 2057C1690.5 2055.96 1688.34 2054.79 1686.25 2053.5C1685.57 2074.03 1684.4 2094.53 1682.75 2115C1682.94 2139.25 1689.78 2161.41 1703.25 2181.5C1717.23 2199.65 1732.73 2216.31 1749.75 2231.5C1750.29 2233.12 1750.62 2234.78 1750.75 2236.5C1729.56 2239.23 1708.56 2238.06 1687.75 2233C1685.08 2231.67 1682.42 2230.33 1679.75 2229C1679 2228.33 1678.66 2227.5 1678.75 2226.5C1678.04 2225.6 1677.04 2225.26 1675.75 2225.5C1675.75 2227.83 1675.75 2230.17 1675.75 2232.5C1674.84 2237.65 1673.34 2242.65 1671.25 2247.5C1662.19 2268.95 1653.69 2290.62 1645.75 2312.5C1650.8 2333.32 1660.96 2350.99 1676.25 2365.5C1703.72 2354.66 1729.22 2340.49 1752.75 2323C1767.93 2311.57 1782.93 2299.91 1797.75 2288C1807.32 2279.1 1816.15 2269.6 1824.25 2259.5C1824.16 2256.36 1822.66 2253.86 1819.75 2252C1806.62 2243.35 1794.12 2233.85 1782.25 2223.5C1780.23 2221.03 1780.39 2218.86 1782.75 2217C1812.93 2209.5 1838.09 2194 1858.25 2170.5C1880.16 2140.04 1887.16 2106.37 1879.25 2069.5C1871 2043.58 1854.17 2025.75 1828.75 2016C1816.9 2012.46 1804.9 2009.63 1792.75 2007.5C1816.15 1995.93 1834.98 1979.27 1849.25 1957.5C1867.85 1920.74 1866.51 1884.74 1845.25 1849.5C1834.44 1834.35 1820.6 1822.85 1803.75 1815C1789.73 1810.74 1775.39 1809.4 1760.75 1811C1751.98 1812.13 1743.31 1813.46 1734.75 1815C1758.16 1786.87 1766.33 1754.7 1759.25 1718.5C1745.29 1682.87 1719.79 1660.37 1682.75 1651C1672.17 1649.01 1661.5 1647.68 1650.75 1647C1648.52 1646.88 1646.69 1646.05 1645.25 1644.5C1622.85 1675.73 1594.68 1700.4 1560.75 1718.5C1556.96 1718.41 1555.63 1716.74 1556.75 1713.5C1573.5 1684.62 1577.66 1653.95 1569.25 1621.5C1558.51 1593.75 1539.34 1574.25 1511.75 1563C1503.35 1559.64 1494.68 1557.31 1485.75 1556C1468.07 1555.05 1450.41 1554.05 1432.75 1553C1432.16 1551.49 1431.49 1549.99 1430.75 1548.5C1423.99 1571.85 1411.33 1591.35 1392.75 1607C1376.81 1619.42 1359.48 1629.59 1340.75 1637.5C1336.78 1638.2 1335.45 1636.87 1336.75 1633.5C1352.74 1608.62 1357.57 1581.62 1351.25 1552.5C1342.34 1523.59 1324.17 1502.75 1296.75 1490C1274.39 1480.21 1251.39 1472.21 1227.75 1466C1223.92 1464.83 1221.42 1462.33 1220.25 1458.5C1205.53 1479.22 1187.03 1495.72 1164.75 1508C1149.43 1516.05 1133.76 1523.21 1117.75 1529.5C1116.42 1529.5 1115.75 1528.83 1115.75 1527.5C1142.85 1494.33 1148.68 1457.66 1133.25 1417.5C1117.86 1388.45 1094.36 1369.29 1062.75 1360C1038.55 1354.91 1014.55 1355.74 990.748 1362.5C989.068 1362.71 988.068 1362.05 987.748 1360.5C995.928 1344.94 999.928 1328.28 999.748 1310.5C998.338 1294.1 994.168 1278.43 987.248 1263.5C969.308 1235.28 952.638 1206.28 937.248 1176.5C926.488 1151.98 918.318 1126.65 912.748 1100.5C913.328 1096.35 912.658 1092.68 910.748 1089.5C905.758 1063.05 903.418 1036.22 903.748 1009C903.938 1002.49 904.268 995.99 904.748 989.5C901.298 989.19 897.968 988.35 894.748 987C881.918 980.94 868.918 975.28 855.748 970C843.368 966.94 831.038 964.11 818.748 961.5C840.948 953.23 861.608 942.07 880.748 928C887.918 922.17 894.418 915.67 900.248 908.5C911.538 894.09 922.698 879.59 933.748 865C941.638 865.32 949.298 866.48 956.748 868.5C956.328 869.22 955.668 869.72 954.748 870C957.618 870.31 960.448 870.81 963.248 871.5C965.128 869.88 966.458 870.21 967.248 872.5C968.138 871.92 969.138 871.59 970.248 871.5C972.088 873.24 974.928 874.24 978.748 874.5C980.138 874.38 981.478 874.05 982.748 873.5C983.078 874.17 983.418 874.83 983.748 875.5C985.658 874.65 987.658 874.32 989.748 874.5C1015.71 878.77 1041.38 883.1 1066.75 887.5C1036.49 937.96 1023.99 992.62 1029.25 1051.5C1033.89 1108.43 1052.22 1160.43 1084.25 1207.5C1114.85 1252.89 1152.68 1291.05 1197.75 1322C1257.97 1362.43 1323.3 1392.1 1393.75 1411C1426.3 1419.41 1458.97 1427.24 1491.75 1434.5C1493.56 1436.94 1495.73 1438.27 1498.25 1438.5C1499.61 1437.62 1501.11 1437.29 1502.75 1437.5C1571.35 1450.98 1638.01 1470.81 1702.75 1497C1751.85 1518.7 1797.51 1545.7 1839.75 1578C1949.69 1669.02 2010.19 1786.19 2021.25 1929.5C2024.64 1970.52 2024.47 2011.52 2020.75 2052.5C2019.62 2054.97 2019.45 2057.63 2020.25 2060.5C2020.97 2059.96 2021.47 2059.29 2021.75 2058.5C2102.27 1978.18 2172.43 1889.84 2232.25 1793.5C2270.98 1730.95 2309.48 1668.28 2347.75 1605.5C2349.43 1606.18 2350.09 1607.52 2349.75 1609.5C2336.99 1738.87 2303.49 1862.54 2249.25 1980.5C2137.56 2218.52 1966.39 2400.69 1735.75 2527C1499.96 2649.75 1250.63 2690.42 987.748 2649C673.488 2589.89 421.648 2432.72 232.248 2177.5C186.608 2113.58 147.108 2045.91 113.748 1974.5C114.278 1963.96 111.948 1954.3 106.748 1945.5C106.748 1945.17 106.748 1944.83 106.748 1944.5C105.973 1939.83 104.807 1935.16 103.248 1930.5C102.508 1928.68 101.341 1927.35 99.7479 1926.5C87.3099 1895.42 77.9769 1863.42 71.7479 1830.5C71.0409 1821.35 69.5409 1812.35 67.2479 1803.5C65.7199 1799.36 64.7199 1795.03 64.2479 1790.5C63.8649 1789.94 63.3649 1789.61 62.7479 1789.5C47.3669 1713.45 44.5339 1636.79 54.2479 1559.5C64.1379 1481.09 94.1379 1411.76 144.248 1351.5C158.158 1336.41 173.658 1323.41 190.748 1312.5C191.738 1312.67 192.408 1312.34 192.748 1311.5C200.218 1307.26 207.558 1302.76 214.748 1298C217.058 1297.5 219.388 1297.34 221.748 1297.5C175.838 1360.44 155.338 1431.1 160.248 1509.5C166.178 1570.92 185.178 1627.92 217.248 1680.5C236.128 1713.05 259.128 1742.38 286.248 1768.5C333.948 1731.58 387.778 1708.08 447.748 1698C504.528 1689.42 559.528 1695.75 612.748 1717C672.358 1744.4 715.858 1787.9 743.248 1847.5C761.898 1887.45 772.398 1929.45 774.748 1973.5C774.748 1975.17 774.748 1976.83 774.748 1978.5C776.038 1978.74 777.038 1978.4 777.748 1977.5C787.118 1967.63 795.958 1957.29 804.248 1946.5C814.408 1927.38 818.078 1907.05 815.248 1885.5C812.208 1860.42 801.538 1839.42 783.248 1822.5C782.558 1821.67 782.728 1821 783.748 1820.5C844.468 1847.38 889.298 1890.72 918.248 1950.5C928.448 1976.76 938.448 2003.09 948.248 2029.5C975.958 2090.63 1023.46 2123.46 1090.75 2128C1151.15 2129.2 1204.15 2110.2 1249.75 2071C1258.95 2062.97 1267.62 2054.47 1275.75 2045.5C1277.51 2046.55 1278.17 2048.22 1277.75 2050.5C1273.03 2103.17 1255.2 2150.84 1224.25 2193.5C1158.65 2281.31 1070.65 2326.64 960.248 2329.5C885.538 2328.6 819.368 2304.77 761.748 2258C717.668 2217.35 689.498 2167.52 677.248 2108.5C673.258 2084.26 669.928 2059.92 667.248 2035.5C663.208 1992.6 645.708 1956.43 614.748 1927C576.778 1896.95 535.108 1890.62 489.748 1908C449.808 1928.29 425.308 1960.45 416.248 2004.5C412.238 2037.35 414.908 2069.68 424.248 2101.5C437.398 2145.13 457.398 2185.13 484.248 2221.5C532.848 2285.66 591.008 2339.16 658.748 2382C828.058 2488.86 1010.72 2521.19 1206.75 2479C1270.28 2462.56 1328.94 2435.9 1382.75 2399C1414.92 2374.83 1443.08 2346.67 1467.25 2314.5C1522.64 2236.46 1536.64 2151.46 1509.25 2059.5C1494.62 2020.89 1472.96 1986.89 1444.25 1957.5C1412.59 1926.92 1377.42 1901.08 1338.75 1880C1316.36 1868.8 1293.69 1858.14 1270.75 1848C1209.5 1824.87 1148.17 1802.04 1086.75 1779.5C1085.86 1778.22 1084.86 1778.22 1083.75 1779.5C1083.87 1780.11 1084.21 1780.44 1084.75 1780.5C1104.77 1822.02 1134.43 1854.85 1173.75 1879C1190.52 1887.86 1207.52 1896.02 1224.75 1903.5C1224.75 1904.83 1224.75 1906.17 1224.75 1907.5C1223.95 1908.67 1220.95 1909.01 1215.75 1908.5C1184.52 1907.24 1153.85 1902.41 1123.75 1894C985.778 1852.31 877.278 1771.48 798.248 1651.5C783.788 1629.59 771.128 1606.59 760.248 1582.5C755.318 1571.53 751.478 1560.2 748.748 1548.5C748.858 1546.62 748.358 1546.29 747.248 1547.5C746.758 1548.79 746.588 1550.13 746.748 1551.5C741.678 1584.34 744.838 1616.34 756.248 1647.5C763.448 1664.23 771.448 1680.57 780.248 1696.5C791.168 1713.57 802.998 1729.9 815.748 1745.5C815.658 1746.5 815.998 1747.33 816.748 1748C816.158 1748.46 815.488 1748.63 814.748 1748.5C661.828 1674.47 572.328 1553.13 546.248 1384.5C544.038 1367.89 542.378 1351.22 541.248 1334.5C540.998 1299.16 540.998 1263.83 541.248 1228.5C534.938 1207.6 530.938 1186.27 529.248 1164.5C505.008 1195.67 490.678 1231 486.248 1270.5C483.648 1289.08 482.478 1307.75 482.748 1326.5C483.338 1330.97 482.668 1334.97 480.748 1338.5C455.668 1291.25 443.998 1240.75 445.748 1187C447.448 1109.37 466.278 1036.21 502.248 967.5C515.868 943.08 530.368 919.25 545.748 896C507.728 905.77 475.898 925.6 450.248 955.5C437.148 971.27 424.808 987.6 413.248 1004.5C409.618 1011.42 406.458 1018.42 403.748 1025.5C401.858 1023.01 401.198 1020.01 401.748 1016.5C401.328 948.25 420.168 885.92 458.248 829.5C486.128 789.96 519.958 756.46 559.748 729C580.078 715.84 601.748 705.34 624.748 697.5C599.668 683.31 572.668 675.81 543.748 675C497.028 672.54 453.028 682.21 411.748 704C409.808 704.81 407.808 705.31 405.748 705.5C428.108 670.97 456.438 642.14 490.748 619C547.978 582.35 610.648 561.35 678.748 556C694.038 554.36 709.378 553.53 724.748 553.5C735.418 553.5 746.078 553.5 756.748 553.5C756.988 552.21 756.648 551.21 755.748 550.5C739.148 530.41 719.148 514.57 695.748 503C661.878 487.7 626.548 478.37 589.748 475C625.518 457.64 663.188 446.3 702.748 441C771.678 431 839.678 435.33 906.748 454C898.458 494.01 902.958 532.84 920.248 570.5C941.498 616.24 972.668 653.57 1013.75 682.5Z" fill="white"/>
<path fill-rule="evenodd" clip-rule="evenodd" d="M1468.75 447.5C1468.08 447.5 1467.75 447.83 1467.75 448.5C1465.5 446.67 1464.33 444.34 1464.25 441.5C1466 443.35 1467.5 445.35 1468.75 447.5Z" fill="white"/>
<path fill-rule="evenodd" clip-rule="evenodd" d="M978.748 523.5C976.068 523.52 974.738 524.86 974.748 527.5C971.618 524.9 970.448 521.57 971.248 517.5C973.728 519.64 976.228 521.64 978.748 523.5Z" fill="white"/>
<path fill-rule="evenodd" clip-rule="evenodd" d="M1359.75 523.5C1360.35 523.74 1360.68 524.24 1360.75 525C1360.22 526.72 1359.55 526.88 1358.75 525.5C1359.59 525.16 1359.92 524.49 1359.75 523.5Z" fill="white"/>
<path fill-rule="evenodd" clip-rule="evenodd" d="M1672.75 538.5C1673.52 539.17 1674.18 540.01 1674.75 541C1671.43 541.5 1668.1 541.67 1664.75 541.5C1667.73 541.1 1670.39 540.1 1672.75 538.5Z" fill="white"/>
<path fill-rule="evenodd" clip-rule="evenodd" d="M755.748 550.5C756.648 551.21 756.988 552.21 756.748 553.5C746.078 553.5 735.418 553.5 724.748 553.5C735.288 553.16 745.618 552.16 755.748 550.5Z" fill="white"/>
<path fill-rule="evenodd" clip-rule="evenodd" d="M1240.75 602.5C1242.28 602.43 1243.28 603.09 1243.75 604.5C1242.22 604.57 1241.22 603.91 1240.75 602.5Z" fill="white"/>
<path fill-rule="evenodd" clip-rule="evenodd" d="M1013.75 682.5C1021.73 685.79 1021.06 687.45 1011.75 687.5C1013.19 686.18 1013.86 684.51 1013.75 682.5Z" fill="white"/>
<path fill-rule="evenodd" clip-rule="evenodd" d="M945.748 783.5C945.498 785.17 944.828 786.67 943.748 788C946.608 788.18 949.278 788.68 951.748 789.5C947.018 789.78 942.348 789.44 937.748 788.5C936.478 787.64 936.638 786.97 938.248 786.5C940.708 785.35 943.208 784.35 945.748 783.5Z" fill="white"/>
<path fill-rule="evenodd" clip-rule="evenodd" d="M1736.75 800.5C1738.51 801.46 1740.51 801.79 1742.75 801.5C1740.56 802.8 1738.22 802.8 1735.75 801.5C1735.87 800.89 1736.21 800.56 1736.75 800.5Z" fill="white"/>
<path fill-rule="evenodd" clip-rule="evenodd" d="M1298.75 833.5C1299.08 832.83 1299.42 832.17 1299.75 831.5C1301.1 830.97 1302.43 830.81 1303.75 831C1302.34 832.37 1300.67 833.21 1298.75 833.5Z" fill="white"/>
<path fill-rule="evenodd" clip-rule="evenodd" d="M956.748 868.5C968.008 869.76 979.008 871.76 989.748 874.5C987.658 874.32 985.658 874.65 983.748 875.5C983.418 874.83 983.078 874.17 982.748 873.5C981.478 874.05 980.138 874.38 978.748 874.5C974.928 874.24 972.088 873.24 970.248 871.5C969.138 871.59 968.138 871.92 967.248 872.5C966.458 870.21 965.128 869.88 963.248 871.5C960.448 870.81 957.618 870.31 954.748 870C955.668 869.72 956.328 869.22 956.748 868.5Z" fill="white"/>
<path fill-rule="evenodd" clip-rule="evenodd" d="M282.748 897.5C284.428 897.29 285.428 897.95 285.748 899.5C261.458 928.4 241.458 960.07 225.748 994.5C224.148 995.29 223.478 996.62 223.748 998.5C221.708 1003.23 219.708 1007.9 217.748 1012.5C216.148 1013.29 215.478 1014.62 215.748 1016.5C178.228 1110.21 169.558 1206.55 189.748 1305.5C189.548 1307.95 189.878 1310.28 190.748 1312.5C173.658 1323.41 158.158 1336.41 144.248 1351.5C94.1377 1411.76 64.1377 1481.09 54.2477 1559.5C44.5337 1636.79 47.3667 1713.45 62.7477 1789.5C64.9887 1803.45 67.9887 1817.12 71.7477 1830.5C77.9767 1863.42 87.3097 1895.42 99.7477 1926.5C101.741 1931.32 103.241 1936.32 104.248 1941.5C104.625 1942.94 105.458 1943.94 106.748 1944.5C106.748 1944.83 106.748 1945.17 106.748 1945.5C107.33 1951.08 108.83 1956.41 111.248 1961.5C112.048 1964.37 111.878 1967.03 110.748 1969.5C55.9557 1859.66 21.6217 1744.16 7.74775 1623C8.08075 1622.67 8.41475 1622.33 8.74775 1622C5.60475 1601.99 3.60475 1581.83 2.74775 1561.5C3.38675 1560.9 3.71975 1560.07 3.74775 1559C3.27575 1555.32 2.60975 1551.82 1.74775 1548.5C-3.28425 1456.88 2.54975 1365.88 19.2477 1275.5C33.1207 1201.2 58.4538 1131.2 95.2477 1065.5C117.948 1027.32 145.118 992.48 176.748 961C200.648 939.04 227.318 921.04 256.748 907C262.668 904.53 268.668 902.37 274.748 900.5C276.798 900.6 278.468 899.93 279.748 898.5C280.458 897.6 281.458 897.26 282.748 897.5Z" fill="white"/>
<path fill-rule="evenodd" clip-rule="evenodd" d="M282.748 897.5C283.818 896.57 285.148 896.23 286.748 896.5C286.988 897.79 286.648 898.79 285.748 899.5C285.428 897.95 284.428 897.29 282.748 897.5Z" fill="white"/>
<path fill-rule="evenodd" clip-rule="evenodd" d="M279.748 898.5C278.468 899.93 276.798 900.6 274.748 900.5C276.028 899.07 277.698 898.4 279.748 898.5Z" fill="white"/>
<path fill-rule="evenodd" clip-rule="evenodd" d="M1141.75 952.5C1142.22 953.91 1143.22 954.57 1144.75 954.5C1137.37 960.32 1136.37 959.66 1141.75 952.5Z" fill="white"/>
<path fill-rule="evenodd" clip-rule="evenodd" d="M225.748 994.5C225.588 996.15 224.918 997.49 223.748 998.5C223.478 996.62 224.148 995.29 225.748 994.5Z" fill="white"/>
<path fill-rule="evenodd" clip-rule="evenodd" d="M217.748 1012.5C217.588 1014.15 216.918 1015.49 215.748 1016.5C215.478 1014.62 216.148 1013.29 217.748 1012.5Z" fill="white"/>
<path fill-rule="evenodd" clip-rule="evenodd" d="M401.748 1016.5C401.198 1020.01 401.858 1023.01 403.748 1025.5C403.038 1026.4 402.038 1026.74 400.748 1026.5C400.438 1022.96 400.768 1019.62 401.748 1016.5Z" fill="white"/>
<path fill-rule="evenodd" clip-rule="evenodd" d="M1898.75 1076.5C1900.56 1077.92 1901.22 1079.92 1900.75 1082.5C1899.79 1080.7 1899.13 1078.7 1898.75 1076.5Z" fill="white"/>
<path fill-rule="evenodd" clip-rule="evenodd" d="M910.748 1089.5C912.658 1092.68 913.328 1096.35 912.748 1100.5C911.348 1097.09 910.678 1093.42 910.748 1089.5Z" fill="white"/>
<path fill-rule="evenodd" clip-rule="evenodd" d="M1746.75 1162.5C1746.51 1163.79 1746.85 1164.79 1747.75 1165.5C1746.78 1166.75 1746.11 1166.42 1745.75 1164.5C1745.79 1163.58 1746.13 1162.92 1746.75 1162.5Z" fill="white"/>
<path fill-rule="evenodd" clip-rule="evenodd" d="M746.748 1180.5C746.078 1180.5 745.748 1180.83 745.748 1181.5C744.978 1180.83 744.318 1179.99 743.748 1179C745.248 1178.42 746.248 1178.92 746.748 1180.5Z" fill="white"/>
<path fill-rule="evenodd" clip-rule="evenodd" d="M2208.75 1186.5C2208.92 1187.49 2208.59 1188.16 2207.75 1188.5C2206.47 1187.61 2206.47 1186.61 2207.75 1185.5C2208.36 1185.62 2208.69 1185.96 2208.75 1186.5Z" fill="white"/>
<path fill-rule="evenodd" clip-rule="evenodd" d="M2208.75 1186.5C2219.26 1191.25 2228.93 1197.25 2237.75 1204.5C2238.22 1205.91 2239.22 1206.57 2240.75 1206.5C2255.91 1216.82 2269.41 1229.15 2281.25 1243.5C2295.72 1261.15 2307.55 1280.49 2316.75 1301.5C2316.48 1303.38 2317.15 1304.71 2318.75 1305.5C2324.99 1319.22 2329.66 1333.55 2332.75 1348.5C2332.33 1350.78 2332.99 1352.45 2334.75 1353.5C2341.39 1381.45 2344.22 1409.78 2343.25 1438.5C2342.58 1440.5 2341.92 1442.5 2341.25 1444.5C2309.28 1505.11 2276.28 1565.11 2242.25 1624.5C2213.33 1672.67 2184.66 1721 2156.25 1769.5C2144.5 1786.66 2133.5 1804.33 2123.25 1822.5C2113.83 1835.74 2104.66 1849.07 2095.75 1862.5C2094.34 1862.97 2093.68 1863.97 2093.75 1865.5C2091.94 1864.08 2091.28 1862.08 2091.75 1859.5C2088.07 1801.75 2076.07 1745.75 2055.75 1691.5C2055.85 1689.45 2055.18 1687.78 2053.75 1686.5C2054.02 1684.62 2053.35 1683.29 2051.75 1682.5C2053.06 1681.11 2052.73 1680.11 2050.75 1679.5C2047.51 1673.36 2044.51 1667.02 2041.75 1660.5C2040.59 1656.85 2038.92 1653.52 2036.75 1650.5C2035.05 1648.43 2033.72 1646.1 2032.75 1643.5C2032.96 1641.82 2032.3 1640.82 2030.75 1640.5C2027.39 1634.82 2024.06 1629.15 2020.75 1623.5C2020.82 1621.97 2020.16 1620.97 2018.75 1620.5C2011.8 1610.22 2004.47 1600.22 1996.75 1590.5C1996.75 1589.17 1996.08 1588.5 1994.75 1588.5C1992.18 1585.68 1989.84 1582.68 1987.75 1579.5C1987.75 1578.17 1987.08 1577.5 1985.75 1577.5C1983.78 1575.19 1981.78 1572.86 1979.75 1570.5C1979.75 1568.5 1978.75 1567.5 1976.75 1567.5C1976.08 1567.5 1975.75 1567.17 1975.75 1566.5C1975.75 1564.5 1974.75 1563.5 1972.75 1563.5C1967.08 1558.5 1961.75 1553.17 1956.75 1547.5C1956.75 1545.5 1955.75 1544.5 1953.75 1544.5C1925.37 1519.46 1894.03 1498.62 1859.75 1482C1848.77 1477.51 1837.77 1473.34 1826.75 1469.5C1826.75 1468.83 1826.75 1468.17 1826.75 1467.5C1848.81 1454.13 1871.81 1442.3 1895.75 1432C1947.61 1412.92 1999.61 1411.58 2051.75 1428C2059.01 1430.63 2066.01 1433.8 2072.75 1437.5C2073.28 1439.45 2074.62 1440.45 2076.75 1440.5C2088.87 1446.4 2100.2 1453.56 2110.75 1462C2148.43 1494.86 2176.1 1534.7 2193.75 1581.5C2194.61 1582.58 2195.61 1582.75 2196.75 1582C2211.91 1559.49 2225.41 1535.99 2237.25 1511.5C2243.28 1495.35 2245.95 1478.68 2245.25 1461.5C2238.07 1426.15 2216.57 1406.15 2180.75 1401.5C2180.75 1400.17 2180.75 1398.83 2180.75 1397.5C2182.28 1397.57 2183.28 1396.91 2183.75 1395.5C2184.42 1394.17 2185.42 1393.17 2186.75 1392.5C2188.75 1392.5 2189.75 1391.5 2189.75 1389.5C2191.42 1387.17 2193.42 1385.17 2195.75 1383.5C2197.16 1383.03 2197.82 1382.03 2197.75 1380.5C2229.64 1340.23 2239.8 1294.9 2228.25 1244.5C2224.47 1224.64 2217.63 1205.98 2207.75 1188.5C2208.59 1188.16 2208.92 1187.49 2208.75 1186.5Z" fill="white"/>
<path fill-rule="evenodd" clip-rule="evenodd" d="M2237.75 1204.5C2239.28 1204.43 2240.28 1205.09 2240.75 1206.5C2239.22 1206.57 2238.22 1205.91 2237.75 1204.5Z" fill="white"/>
<path fill-rule="evenodd" clip-rule="evenodd" d="M1442.75 1214.5C1444.67 1218.03 1445.34 1222.03 1444.75 1226.5C1443.46 1222.73 1442.79 1218.73 1442.75 1214.5Z" fill="white"/>
<path fill-rule="evenodd" clip-rule="evenodd" d="M2316.75 1301.5C2317.92 1302.51 2318.59 1303.85 2318.75 1305.5C2317.15 1304.71 2316.48 1303.38 2316.75 1301.5Z" fill="white"/>
<path fill-rule="evenodd" clip-rule="evenodd" d="M189.748 1305.5C190.258 1307.75 191.258 1309.75 192.748 1311.5C192.408 1312.34 191.738 1312.67 190.748 1312.5C189.878 1310.28 189.548 1307.95 189.748 1305.5Z" fill="white"/>
<path fill-rule="evenodd" clip-rule="evenodd" d="M403.748 1316.5C404.808 1318.1 404.808 1319.77 403.748 1321.5C403.748 1322.17 403.418 1322.5 402.748 1322.5C401.338 1322.97 400.678 1323.97 400.748 1325.5C358.548 1394.53 350.708 1467.53 377.248 1544.5C382.308 1556.95 387.638 1569.28 393.248 1581.5C403.608 1599.33 414.108 1617 424.748 1634.5C424.138 1635.39 423.808 1636.39 423.748 1637.5C385.828 1641.98 349.828 1652.64 315.748 1669.5C314.418 1669.17 313.078 1668.83 311.748 1668.5C298.778 1655.86 288.108 1641.53 279.748 1625.5C279.748 1624.17 279.078 1623.5 277.748 1623.5C276.478 1621.29 275.478 1618.95 274.748 1616.5C274.588 1614.85 273.918 1613.51 272.748 1612.5C271.148 1611.71 270.478 1610.38 270.748 1608.5C270.588 1606.85 269.918 1605.51 268.748 1604.5C252.668 1571.34 245.008 1536.17 245.748 1499C244.928 1465.77 251.088 1433.6 264.248 1402.5C292.608 1344.72 339.108 1316.06 403.748 1316.5Z" fill="white"/>
<path fill-rule="evenodd" clip-rule="evenodd" d="M1507.75 1311.5C1516.27 1324.69 1514.27 1326.03 1501.75 1315.5C1505.73 1317.29 1507.73 1315.96 1507.75 1311.5Z" fill="white"/>
<path fill-rule="evenodd" clip-rule="evenodd" d="M403.748 1316.5C407.128 1317.63 407.128 1319.3 403.748 1321.5C404.808 1319.77 404.808 1318.1 403.748 1316.5Z" fill="white"/>
<path fill-rule="evenodd" clip-rule="evenodd" d="M402.748 1322.5C402.818 1324.03 402.158 1325.03 400.748 1325.5C400.678 1323.97 401.338 1322.97 402.748 1322.5Z" fill="white"/>
<path fill-rule="evenodd" clip-rule="evenodd" d="M482.748 1326.5C484.058 1331.35 484.058 1336.35 482.748 1341.5C481.818 1340.64 481.158 1339.64 480.748 1338.5C482.668 1334.97 483.338 1330.97 482.748 1326.5Z" fill="white"/>
<path fill-rule="evenodd" clip-rule="evenodd" d="M2332.75 1348.5C2333.56 1350.03 2334.23 1351.69 2334.75 1353.5C2332.99 1352.45 2332.33 1350.78 2332.75 1348.5Z" fill="white"/>
<path fill-rule="evenodd" clip-rule="evenodd" d="M987.748 1360.5C988.068 1362.05 989.068 1362.71 990.748 1362.5C988.938 1364.11 986.938 1364.44 984.748 1363.5C985.438 1362.15 986.438 1361.15 987.748 1360.5Z" fill="white"/>
<path fill-rule="evenodd" clip-rule="evenodd" d="M2197.75 1380.5C2197.82 1382.03 2197.16 1383.03 2195.75 1383.5C2195.68 1381.97 2196.34 1380.97 2197.75 1380.5Z" fill="white"/>
<path fill-rule="evenodd" clip-rule="evenodd" d="M2189.75 1389.5C2189.75 1391.5 2188.75 1392.5 2186.75 1392.5C2187.42 1391.17 2188.42 1390.17 2189.75 1389.5Z" fill="white"/>
<path fill-rule="evenodd" clip-rule="evenodd" d="M2183.75 1395.5C2183.28 1396.91 2182.28 1397.57 2180.75 1397.5C2181.22 1396.09 2182.22 1395.43 2183.75 1395.5Z" fill="white"/>
<path fill-rule="evenodd" clip-rule="evenodd" d="M2180.75 1397.5C2180.75 1398.83 2180.75 1400.17 2180.75 1401.5C2177.08 1400.71 2177.08 1399.37 2180.75 1397.5Z" fill="white"/>
<path fill-rule="evenodd" clip-rule="evenodd" d="M865.748 1403.5C864.908 1403.84 864.578 1404.51 864.748 1405.5C864.128 1405.39 863.628 1405.06 863.248 1404.5C862.568 1400.96 863.398 1400.62 865.748 1403.5Z" fill="white"/>
<path fill-rule="evenodd" clip-rule="evenodd" d="M865.748 1403.5C867.398 1403.66 868.738 1404.33 869.748 1405.5C867.868 1405.77 866.538 1405.1 865.748 1403.5Z" fill="white"/>
<path fill-rule="evenodd" clip-rule="evenodd" d="M973.748 1420.5C976.118 1422.54 975.448 1423.54 971.748 1423.5C972.798 1422.78 973.468 1421.78 973.748 1420.5Z" fill="white"/>
<path fill-rule="evenodd" clip-rule="evenodd" d="M1491.75 1434.5C1495.65 1435.06 1499.31 1436.06 1502.75 1437.5C1501.11 1437.29 1499.61 1437.62 1498.25 1438.5C1495.73 1438.27 1493.56 1436.94 1491.75 1434.5Z" fill="white"/>
<path fill-rule="evenodd" clip-rule="evenodd" d="M2072.75 1437.5C2074.48 1438.03 2075.81 1439.03 2076.75 1440.5C2074.62 1440.45 2073.28 1439.45 2072.75 1437.5Z" fill="white"/>
<path fill-rule="evenodd" clip-rule="evenodd" d="M1826.75 1467.5C1826.75 1468.17 1826.75 1468.83 1826.75 1469.5C1824.32 1469.21 1824.32 1468.55 1826.75 1467.5Z" fill="white"/>
<path fill-rule="evenodd" clip-rule="evenodd" d="M1115.75 1527.5C1115.75 1528.83 1116.42 1529.5 1117.75 1529.5C1115.52 1531.2 1113.02 1532.53 1110.25 1533.5C1109.58 1532.83 1109.58 1532.17 1110.25 1531.5C1112.24 1530.34 1114.08 1529 1115.75 1527.5Z" fill="white"/>
<path fill-rule="evenodd" clip-rule="evenodd" d="M1953.75 1544.5C1955.75 1544.5 1956.75 1545.5 1956.75 1547.5C1955.42 1546.83 1954.42 1545.83 1953.75 1544.5Z" fill="white"/>
<path fill-rule="evenodd" clip-rule="evenodd" d="M748.748 1548.5C748.078 1549.5 747.418 1550.5 746.748 1551.5C746.588 1550.13 746.758 1548.79 747.248 1547.5C748.358 1546.29 748.858 1546.62 748.748 1548.5Z" fill="white"/>
<path fill-rule="evenodd" clip-rule="evenodd" d="M1.74784 1548.5C2.60984 1551.82 3.27584 1555.32 3.74784 1559C3.71984 1560.07 3.38684 1560.9 2.74784 1561.5C1.95284 1557.21 1.61984 1552.88 1.74784 1548.5Z" fill="white"/>
<path fill-rule="evenodd" clip-rule="evenodd" d="M1972.75 1563.5C1974.75 1563.5 1975.75 1564.5 1975.75 1566.5C1974.42 1565.83 1973.42 1564.83 1972.75 1563.5Z" fill="white"/>
<path fill-rule="evenodd" clip-rule="evenodd" d="M1976.75 1567.5C1978.75 1567.5 1979.75 1568.5 1979.75 1570.5C1978.42 1569.83 1977.42 1568.83 1976.75 1567.5Z" fill="white"/>
<path fill-rule="evenodd" clip-rule="evenodd" d="M1985.75 1577.5C1987.08 1577.5 1987.75 1578.17 1987.75 1579.5C1986.75 1579.17 1986.08 1578.5 1985.75 1577.5Z" fill="white"/>
<path fill-rule="evenodd" clip-rule="evenodd" d="M1994.75 1588.5C1996.08 1588.5 1996.75 1589.17 1996.75 1590.5C1995.75 1590.17 1995.08 1589.5 1994.75 1588.5Z" fill="white"/>
<path fill-rule="evenodd" clip-rule="evenodd" d="M268.748 1604.5C269.918 1605.51 270.588 1606.85 270.748 1608.5C269.148 1607.71 268.478 1606.38 268.748 1604.5Z" fill="white"/>
<path fill-rule="evenodd" clip-rule="evenodd" d="M2349.75 1609.5C2350.09 1607.52 2349.43 1606.18 2347.75 1605.5C2348.26 1603.77 2349.09 1603.43 2350.25 1604.5C2351.03 1606.39 2350.86 1608.05 2349.75 1609.5Z" fill="white"/>
<path fill-rule="evenodd" clip-rule="evenodd" d="M272.748 1612.5C273.918 1613.51 274.588 1614.85 274.748 1616.5C273.148 1615.71 272.478 1614.38 272.748 1612.5Z" fill="white"/>
<path fill-rule="evenodd" clip-rule="evenodd" d="M2018.75 1620.5C2020.16 1620.97 2020.82 1621.97 2020.75 1623.5C2019.34 1623.03 2018.68 1622.03 2018.75 1620.5Z" fill="white"/>
<path fill-rule="evenodd" clip-rule="evenodd" d="M277.748 1623.5C279.078 1623.5 279.748 1624.17 279.748 1625.5C278.748 1625.17 278.078 1624.5 277.748 1623.5Z" fill="white"/>
<path fill-rule="evenodd" clip-rule="evenodd" d="M424.748 1634.5C427.298 1636.01 426.958 1637.01 423.748 1637.5C423.808 1636.39 424.138 1635.39 424.748 1634.5Z" fill="white"/>
<path fill-rule="evenodd" clip-rule="evenodd" d="M1336.75 1633.5C1335.45 1636.87 1336.78 1638.2 1340.75 1637.5C1337.15 1639.93 1333.15 1641.59 1328.75 1642.5C1331.45 1639.47 1334.11 1636.47 1336.75 1633.5Z" fill="white"/>
<path fill-rule="evenodd" clip-rule="evenodd" d="M2030.75 1640.5C2032.3 1640.82 2032.96 1641.82 2032.75 1643.5C2031.34 1643.03 2030.68 1642.03 2030.75 1640.5Z" fill="white"/>
<path fill-rule="evenodd" clip-rule="evenodd" d="M1328.75 1642.5C1328.08 1643.17 1328.08 1643.17 1328.75 1642.5Z" fill="white"/>
<path fill-rule="evenodd" clip-rule="evenodd" d="M2036.75 1650.5C2038.92 1653.52 2040.59 1656.85 2041.75 1660.5C2039.04 1657.75 2037.38 1654.42 2036.75 1650.5Z" fill="white"/>
<path fill-rule="evenodd" clip-rule="evenodd" d="M311.748 1668.5C313.078 1668.83 314.418 1669.17 315.748 1669.5C314.118 1670.85 312.788 1670.52 311.748 1668.5Z" fill="white"/>
<path fill-rule="evenodd" clip-rule="evenodd" d="M2050.75 1679.5C2052.73 1680.11 2053.06 1681.11 2051.75 1682.5C2050.85 1681.79 2050.51 1680.79 2050.75 1679.5Z" fill="white"/>
<path fill-rule="evenodd" clip-rule="evenodd" d="M2051.75 1682.5C2053.35 1683.29 2054.02 1684.62 2053.75 1686.5C2052.58 1685.49 2051.91 1684.15 2051.75 1682.5Z" fill="white"/>
<path fill-rule="evenodd" clip-rule="evenodd" d="M2053.75 1686.5C2055.18 1687.78 2055.85 1689.45 2055.75 1691.5C2054.32 1690.22 2053.65 1688.55 2053.75 1686.5Z" fill="white"/>
<path fill-rule="evenodd" clip-rule="evenodd" d="M1556.75 1713.5C1555.63 1716.74 1556.96 1718.41 1560.75 1718.5C1557.32 1721.41 1553.49 1723.75 1549.25 1725.5C1548.75 1725.17 1548.25 1724.83 1547.75 1724.5C1550.53 1720.58 1553.53 1716.91 1556.75 1713.5Z" fill="white"/>
<path fill-rule="evenodd" clip-rule="evenodd" d="M815.748 1745.5C817.878 1747.13 819.878 1748.96 821.748 1751C819.008 1751.3 816.668 1750.46 814.748 1748.5C815.488 1748.63 816.158 1748.46 816.748 1748C815.998 1747.33 815.658 1746.5 815.748 1745.5Z" fill="white"/>
<path fill-rule="evenodd" clip-rule="evenodd" d="M1086.75 1779.5C1085.76 1779.33 1085.09 1779.66 1084.75 1780.5C1084.21 1780.44 1083.87 1780.11 1083.75 1779.5C1084.86 1778.22 1085.86 1778.22 1086.75 1779.5Z" fill="white"/>
<path fill-rule="evenodd" clip-rule="evenodd" d="M62.7478 1789.5C63.3648 1789.61 63.8648 1789.94 64.2478 1790.5C64.7198 1795.03 65.7198 1799.36 67.2478 1803.5C69.5408 1812.35 71.0408 1821.35 71.7478 1830.5C67.9888 1817.12 64.9888 1803.45 62.7478 1789.5Z" fill="white"/>
<path fill-rule="evenodd" clip-rule="evenodd" d="M1707.75 1847.5C1709.86 1846.53 1712.19 1846.2 1714.75 1846.5C1714.99 1847.79 1714.65 1848.79 1713.75 1849.5C1712.33 1847.69 1710.33 1847.03 1707.75 1847.5Z" fill="white"/>
<path fill-rule="evenodd" clip-rule="evenodd" d="M2091.75 1859.5C2091.28 1862.08 2091.94 1864.08 2093.75 1865.5C2093.04 1866.4 2092.04 1866.74 2090.75 1866.5C2090.45 1863.94 2090.78 1861.61 2091.75 1859.5Z" fill="white"/>
<path fill-rule="evenodd" clip-rule="evenodd" d="M2095.75 1862.5C2095.82 1864.03 2095.16 1865.03 2093.75 1865.5C2093.68 1863.97 2094.34 1862.97 2095.75 1862.5Z" fill="white"/>
<path fill-rule="evenodd" clip-rule="evenodd" d="M1629.75 1892.5C1628.7 1893.22 1628.03 1894.22 1627.75 1895.5C1619.64 1889.28 1620.3 1888.28 1629.75 1892.5Z" fill="white"/>
<path fill-rule="evenodd" clip-rule="evenodd" d="M1224.75 1903.5C1228.44 1904.18 1231.77 1905.68 1234.75 1908C1228.3 1909.61 1221.96 1909.78 1215.75 1908.5C1220.95 1909.01 1223.95 1908.67 1224.75 1907.5C1224.75 1906.17 1224.75 1904.83 1224.75 1903.5Z" fill="white"/>
<path fill-rule="evenodd" clip-rule="evenodd" d="M99.7478 1926.5C101.341 1927.35 102.508 1928.68 103.248 1930.5C104.807 1935.16 105.973 1939.83 106.748 1944.5C105.458 1943.94 104.625 1942.94 104.248 1941.5C103.241 1936.32 101.741 1931.32 99.7478 1926.5Z" fill="white"/>
<path fill-rule="evenodd" clip-rule="evenodd" d="M106.748 1945.5C111.948 1954.3 114.278 1963.96 113.748 1974.5C111.998 1973.34 110.998 1971.67 110.748 1969.5C111.878 1967.03 112.048 1964.37 111.248 1961.5C108.83 1956.41 107.33 1951.08 106.748 1945.5Z" fill="white"/>
<path fill-rule="evenodd" clip-rule="evenodd" d="M774.748 1973.5C775.268 1975.22 776.268 1976.55 777.748 1977.5C777.038 1978.4 776.038 1978.74 774.748 1978.5C774.748 1976.83 774.748 1975.17 774.748 1973.5Z" fill="white"/>
<path fill-rule="evenodd" clip-rule="evenodd" d="M1774.75 2033.5C1777.44 2033.34 1780.1 2033.5 1782.75 2034C1782.01 2035.04 1781.01 2035.54 1779.75 2035.5C1778.08 2034.83 1776.42 2034.17 1774.75 2033.5Z" fill="white"/>
<path fill-rule="evenodd" clip-rule="evenodd" d="M1277.75 2050.5C1278.17 2048.22 1277.51 2046.55 1275.75 2045.5C1276.06 2044.52 1276.73 2043.86 1277.75 2043.5C1279.05 2045.97 1279.05 2048.31 1277.75 2050.5Z" fill="white"/>
<path fill-rule="evenodd" clip-rule="evenodd" d="M1685.75 2051.5C1685.08 2051.5 1684.75 2051.83 1684.75 2052.5C1683.68 2051.75 1683.51 2050.75 1684.25 2049.5C1684.97 2050.04 1685.47 2050.71 1685.75 2051.5Z" fill="white"/>
<path fill-rule="evenodd" clip-rule="evenodd" d="M2020.75 2052.5C2020.46 2054.74 2020.79 2056.74 2021.75 2058.5C2021.47 2059.29 2020.97 2059.96 2020.25 2060.5C2019.45 2057.63 2019.62 2054.97 2020.75 2052.5Z" fill="white"/>
<path fill-rule="evenodd" clip-rule="evenodd" d="M1678.75 2226.5C1677.19 2228.16 1676.19 2230.16 1675.75 2232.5C1675.75 2230.17 1675.75 2227.83 1675.75 2225.5C1677.04 2225.26 1678.04 2225.6 1678.75 2226.5Z" fill="white"/>
<path fill-rule="evenodd" clip-rule="evenodd" d="M1749.75 2231.5C1751.21 2232.41 1752.21 2233.74 1752.75 2235.5C1752.29 2236.3 1751.63 2236.63 1750.75 2236.5C1750.62 2234.78 1750.29 2233.12 1749.75 2231.5Z" fill="white"/>
</svg>
