<svg width="2352" height="2665" viewBox="0 0 2352 2665" fill="none" xmlns="http://www.w3.org/2000/svg">
<path fill-rule="evenodd" clip-rule="evenodd" d="M1318.5 256.5C1318.81 257.478 1319.48 258.145 1320.5 258.5C1321.47 256.604 1321.8 254.604 1321.5 252.5C1321.89 250.063 1323.05 248.063 1325 246.5C1350.24 269.746 1376.08 292.246 1402.5 314C1428.31 333.9 1457.31 347.4 1489.5 354.5C1489.8 355.15 1490.14 355.82 1490.5 356.5C1493.83 357.83 1497.17 357.83 1500.5 356.5C1500.38 355.89 1500.04 355.56 1499.5 355.5C1487.05 334.72 1473.05 315.05 1457.5 296.5C1458.03 292.971 1459.36 292.638 1461.5 295.5C1463.07 294.691 1464.74 294.357 1466.5 294.5C1551.46 317.05 1623.63 360.38 1683 424.5C1698.3 441.76 1708.3 461.76 1713 484.5C1713.41 492.81 1713.57 500.98 1713.5 509C1741.94 520.89 1770.61 532.22 1799.5 543C1817.7 549.17 1836.37 552.51 1855.5 553C1858.88 552.55 1862.21 551.88 1865.5 551C1881.51 543.83 1897.84 537.5 1914.5 532C1943.34 526.05 1969.34 532.05 1992.5 550C2007.25 564.01 2015.75 581.17 2018 601.5C2020.33 652.83 2006.33 699.17 1976 740.5C1971.33 746.5 1966.67 752.5 1962 758.5C1952.77 753.43 1944.94 746.77 1938.5 738.5C1925.99 771.18 1904.33 796.02 1873.5 813C1862.28 818.44 1850.95 823.61 1839.5 828.5C1838.07 828.27 1837.57 827.6 1838 826.5C1865.85 798.95 1873.18 766.62 1860 729.5C1858 725.35 1855.83 721.35 1853.5 717.5C1836.23 747.26 1812.23 770.1 1781.5 786C1769.27 792.24 1756.61 797.41 1743.5 801.5C1741.26 801.79 1739.26 801.46 1737.5 800.5C1753.32 788.1 1762.82 771.77 1766 751.5C1770.13 720.34 1757.63 699.17 1728.5 688C1695.54 678.24 1661.88 672.58 1627.5 671C1596.69 669.39 1566.02 670.73 1535.5 675C1520.64 677.4 1506.97 682.73 1494.5 691C1479.52 705.57 1476.35 722.4 1485 741.5C1492.46 751.3 1500.96 760.13 1510.5 768C1541.25 788.42 1570.59 810.75 1598.5 835C1615.88 852.04 1631.38 870.54 1645 890.5C1647.8 894.3 1650.96 897.8 1654.5 901C1661.56 902.89 1668.56 902.55 1675.5 900C1694.07 891.77 1708.57 878.93 1719 861.5C1722.09 855.15 1724.26 848.48 1725.5 841.5C1725.73 840.07 1726.4 839.57 1727.5 840C1731.1 845.57 1732.94 851.74 1733 858.5C1736.45 880.49 1732.78 901.16 1722 920.5C1718.17 926.33 1714.33 932.17 1710.5 938C1747.45 942.27 1775.62 928.77 1795 897.5C1795.97 891.95 1797.47 886.62 1799.5 881.5C1801.2 882.36 1802.36 883.7 1803 885.5C1812.88 927.32 1802.05 962.65 1770.5 991.5C1735.65 1020.76 1700.98 1050.26 1666.5 1080C1642.64 1096.85 1617.97 1112.52 1592.5 1127C1571.62 1139.54 1552.45 1154.37 1535 1171.5C1496.46 1212.39 1487.62 1259.06 1508.5 1311.5C1508.48 1315.96 1506.48 1317.29 1502.5 1315.5C1472.16 1293.17 1453.16 1263.5 1445.5 1226.5C1446.09 1222.03 1445.42 1218.03 1443.5 1214.5C1438.68 1174.1 1445.18 1135.43 1463 1098.5C1478.35 1071.8 1493.68 1045.13 1509 1018.5C1526.26 964.85 1508.76 927.35 1456.5 906C1412.57 893.39 1367.9 890.06 1322.5 896C1270.32 901.88 1220.32 915.54 1172.5 937C1162.79 941.85 1153.79 947.68 1145.5 954.5C1143.97 954.57 1142.97 953.91 1142.5 952.5C1155.89 928.59 1173.22 907.76 1194.5 890C1226.53 865.98 1261.53 847.15 1299.5 833.5C1301.42 833.21 1303.09 832.37 1304.5 831C1303.18 830.81 1301.85 830.97 1300.5 831.5C1280.65 835.31 1260.65 838.14 1240.5 840C1196.51 841.58 1153.17 836.92 1110.5 826C1075 817.29 1039.67 807.96 1004.5 798C987.27 794.41 969.94 791.57 952.5 789.5C950.03 788.68 947.36 788.18 944.5 788C945.58 786.67 946.25 785.17 946.5 783.5C985.62 767.39 1026.28 757.22 1068.5 753C1111.49 749.53 1154.49 746.2 1197.5 743C1223.93 740.18 1249.93 735.18 1275.5 728C1283.95 724.85 1292.28 721.52 1300.5 718C1211.68 712.51 1131.68 683.51 1060.5 631C1024.45 602.65 996.11 568.15 975.5 527.5C975.49 524.86 976.82 523.52 979.5 523.5C1026.76 549.54 1076.1 571.04 1127.5 588C1157.89 597.01 1188.89 602.68 1220.5 605C1228.68 605.82 1236.68 605.66 1244.5 604.5C1244.03 603.09 1243.03 602.43 1241.5 602.5C1209.46 590.65 1178.79 575.81 1149.5 558C1080.57 512.87 1017.73 460.04 961 399.5C958.04 395.53 954.7 391.87 951 388.5C950.41 387.52 950.74 386.85 952 386.5C1030.01 414.13 1109.17 437.96 1189.5 458C1222.49 467.55 1254.82 478.88 1286.5 492C1310.62 503.73 1334.95 514.9 1359.5 525.5C1360.3 526.88 1360.97 526.72 1361.5 525C1361.43 524.24 1361.1 523.74 1360.5 523.5C1333.43 467.26 1290.43 428.76 1231.5 408C1219.03 403.1 1206.37 398.77 1193.5 395C1145.21 382.84 1096.88 370.84 1048.5 359C994.7 344.4 942.7 325.07 892.5 301C848.35 279.003 808.85 250.503 774 215.5C747.47 187.614 726.47 155.947 711 120.5C704.46 103.68 699.79 86.346 697 68.5C695.17 52.491 693.33 36.491 691.5 20.5C694.36 21.834 696.86 23.834 699 26.5C704.27 35.437 709.94 44.103 716 52.5C757.67 101.177 803.51 145.344 853.5 185C901.09 219.128 953.09 244.794 1009.5 262C1014.48 263.33 1019.48 264.496 1024.5 265.5C1029.29 266.909 1029.62 266.242 1025.5 263.5C996 235.175 968.84 204.842 944 172.5C912.09 127.724 894.75 78.057 892 23.5C918.54 55.383 949.38 82.216 984.5 104C1003.75 120.256 1018.91 139.756 1030 162.5C1051.21 193.375 1078.37 217.541 1111.5 235C1147.12 253.035 1184.12 267.202 1222.5 277.5C1224.32 278.621 1226.32 279.121 1228.5 279C1227.63 277.955 1226.63 277.122 1225.5 276.5C1184.62 243.405 1154.45 202.405 1135 153.5C1117.37 103.066 1118.37 53.066 1138 3.5C1138.37 2.09 1139.2 1.09 1140.5 0.5C1141.62 2.369 1142.46 4.369 1143 6.5C1145.75 28.739 1151.75 50.073 1161 70.5C1197.78 145.69 1250.28 207.69 1318.5 256.5ZM1469.5 447.5C1482.71 454.97 1496.71 460.8 1511.5 465C1539.53 472.41 1567.86 478.41 1596.5 483C1630.22 490.58 1655.88 509.08 1673.5 538.5C1671.14 540.1 1668.48 541.1 1665.5 541.5C1639.93 545.81 1614.26 549.48 1588.5 552.5C1563.4 551.11 1541.4 542.27 1522.5 526C1499.44 503.72 1481.44 477.88 1468.5 448.5C1468.5 447.83 1468.83 447.5 1469.5 447.5Z" fill="#020202"/>
<path fill-rule="evenodd" clip-rule="evenodd" d="M2177.5 96.5C2174.17 96.5 2172.5 98.167 2172.5 101.5C2168.39 98.396 2165.06 94.729 2162.5 90.5C2167.88 91.734 2172.88 93.734 2177.5 96.5Z" fill="#292B2C"/>
<path fill-rule="evenodd" clip-rule="evenodd" d="M2177.5 96.5C2219.92 111.09 2249.09 139.423 2265 181.5C2276.17 213.713 2279.84 246.713 2276 280.5C2267.83 318.33 2247 346.83 2213.5 366C2196.95 374.3 2179.95 381.63 2162.5 388C2142.36 395.16 2125.19 406.66 2111 422.5C2098.58 436.85 2093.58 453.52 2096 472.5C2100.96 498.79 2114.12 519.95 2135.5 536C2154.4 548.9 2172.73 562.56 2190.5 577C2208.73 593.25 2220.23 613.42 2225 637.5C2226.83 672.99 2212.33 699.49 2181.5 717C2168.34 724.08 2155.34 731.41 2142.5 739C2128.37 748.45 2122.87 761.61 2126 778.5C2130.87 794.11 2135.54 809.77 2140 825.5C2147.29 878.41 2125.79 913.91 2075.5 932C2046.55 940.57 2017.22 947.57 1987.5 953C1972.22 956.87 1957.88 962.87 1944.5 971C1934.59 979.49 1928.59 990.15 1926.5 1003C1927.29 1007.93 1928.45 1012.76 1930 1017.5C1936.88 1031.93 1943.22 1046.6 1949 1061.5C1960.67 1101.98 1947.5 1131.15 1909.5 1149C1890.57 1157.45 1870.73 1161.29 1850 1160.5C1827.85 1159.1 1805.68 1158.6 1783.5 1159C1771.49 1159.46 1759.82 1161.62 1748.5 1165.5C1747.6 1164.79 1747.26 1163.79 1747.5 1162.5C1755.85 1149.64 1765.18 1137.47 1775.5 1126C1784.96 1117.77 1795.96 1113.1 1808.5 1112C1822.01 1111.4 1835.51 1111.57 1849 1112.5C1859.62 1112.35 1870.12 1111.19 1880.5 1109C1890.24 1105.59 1897.08 1099.09 1901 1089.5C1901.5 1087.19 1901.66 1084.86 1901.5 1082.5C1901.97 1079.92 1901.31 1077.92 1899.5 1076.5C1890.14 1057.92 1882.64 1038.59 1877 1018.5C1873.51 984.65 1885.01 957.15 1911.5 936C1929.64 922.1 1949.97 912.77 1972.5 908C2001.19 902.41 2029.52 895.41 2057.5 887C2069.95 882.37 2079.79 874.54 2087 863.5C2091.35 851.21 2091.35 838.87 2087 826.5C2082.06 812.02 2077.73 797.35 2074 782.5C2070.66 755.19 2078.49 731.69 2097.5 712C2104.17 706.67 2110.83 701.33 2117.5 696C2130.17 688.67 2142.83 681.33 2155.5 674C2166.14 666.88 2172.47 657.04 2174.5 644.5C2173.07 635.31 2169.24 627.31 2163 620.5C2159.22 617.68 2155.72 614.52 2152.5 611C2126.93 594.11 2103.1 574.95 2081 553.5C2062.08 531.98 2050.41 506.98 2046 478.5C2042.37 430.94 2059.87 393.44 2098.5 366C2108.52 358.99 2119.19 352.99 2130.5 348C2149.19 341.11 2167.53 333.44 2185.5 325C2214.31 308.83 2228.98 284.165 2229.5 251C2226.86 211.269 2216.36 173.769 2198 138.5C2189.67 126.011 2181.17 113.678 2172.5 101.5C2172.5 98.167 2174.17 96.5 2177.5 96.5Z" fill="#040405"/>
<path fill-rule="evenodd" clip-rule="evenodd" d="M1321.5 252.5C1321.8 254.604 1321.47 256.604 1320.5 258.5C1319.48 258.145 1318.81 257.478 1318.5 256.5C1319.98 255.552 1320.98 254.219 1321.5 252.5Z" fill="#595662"/>
<path fill-rule="evenodd" clip-rule="evenodd" d="M1025.5 263.5C1029.62 266.242 1029.29 266.909 1024.5 265.5C1024.83 264.833 1025.17 264.167 1025.5 263.5Z" fill="#AEB2B9"/>
<path fill-rule="evenodd" clip-rule="evenodd" d="M1225.5 276.5C1226.63 277.122 1227.63 277.955 1228.5 279C1226.32 279.121 1224.32 278.621 1222.5 277.5C1223.79 277.737 1224.79 277.404 1225.5 276.5Z" fill="#7B7B7E"/>
<path fill-rule="evenodd" clip-rule="evenodd" d="M1466.5 294.5C1464.74 294.357 1463.07 294.691 1461.5 295.5C1459.36 292.638 1458.03 292.971 1457.5 296.5C1454.47 294.984 1451.8 292.984 1449.5 290.5C1450.33 290.167 1451.17 289.833 1452 289.5C1456.97 291.084 1461.8 292.751 1466.5 294.5Z" fill="#292A2A"/>
<path fill-rule="evenodd" clip-rule="evenodd" d="M1489.5 354.5C1492.15 355.16 1494.82 355.83 1497.5 356.5C1498.42 356.46 1499.08 356.12 1499.5 355.5C1500.04 355.56 1500.38 355.89 1500.5 356.5C1497.17 357.83 1493.83 357.83 1490.5 356.5C1490.14 355.82 1489.8 355.15 1489.5 354.5Z" fill="#474747"/>
<path fill-rule="evenodd" clip-rule="evenodd" d="M1014.5 682.5C1014.61 684.51 1013.94 686.18 1012.5 687.5C943.24 711.6 885.74 752.27 840 809.5C813.49 842.74 791.83 879.07 775 918.5C764.38 947.32 757.38 976.98 754 1007.5C747.86 1088.17 776.03 1153.67 838.5 1204C813.25 1205.05 788.58 1201.05 764.5 1192C758.11 1189.09 752.44 1185.25 747.5 1180.5C747 1178.92 746 1178.42 744.5 1179C745.07 1179.99 745.73 1180.83 746.5 1181.5C766.58 1253.17 806.58 1311 866.5 1355C891.44 1370.94 916.1 1387.27 940.5 1404C951.46 1410.31 962.8 1415.81 974.5 1420.5C974.22 1421.78 973.55 1422.78 972.5 1423.5C944.32 1424.02 916.65 1420.52 889.5 1413C882.92 1411.04 876.58 1408.54 870.5 1405.5C869.49 1404.33 868.15 1403.66 866.5 1403.5C864.15 1400.62 863.32 1400.96 864 1404.5C864.38 1405.06 864.88 1405.39 865.5 1405.5C890.1 1446.29 921.1 1481.79 958.5 1512C1021.52 1561.21 1089.52 1602.87 1162.5 1637C1226.85 1665.56 1291.85 1692.56 1357.5 1718C1435.53 1750.52 1511.86 1786.52 1586.5 1826C1610.1 1837.09 1634.76 1844.75 1660.5 1849C1676.56 1849.92 1692.56 1849.42 1708.5 1847.5C1711.08 1847.03 1713.08 1847.69 1714.5 1849.5C1698.02 1871.46 1676.35 1885.62 1649.5 1892C1643.13 1893.48 1636.8 1893.64 1630.5 1892.5C1621.05 1888.28 1620.39 1889.28 1628.5 1895.5C1643.32 1919.81 1658.16 1944.14 1673 1968.5C1697.43 2005.41 1731.6 2027.08 1775.5 2033.5C1777.17 2034.17 1778.83 2034.83 1780.5 2035.5C1764.39 2044.55 1747.39 2051.39 1729.5 2056C1717.54 2057.53 1705.54 2057.87 1693.5 2057C1691.25 2055.96 1689.09 2054.79 1687 2053.5C1686.32 2074.03 1685.15 2094.53 1683.5 2115C1683.69 2139.25 1690.53 2161.41 1704 2181.5C1717.98 2199.65 1733.48 2216.31 1750.5 2231.5C1751.04 2233.12 1751.37 2234.78 1751.5 2236.5C1730.31 2239.23 1709.31 2238.06 1688.5 2233C1685.83 2231.67 1683.17 2230.33 1680.5 2229C1679.75 2228.33 1679.41 2227.5 1679.5 2226.5C1678.79 2225.6 1677.79 2225.26 1676.5 2225.5C1676.5 2227.83 1676.5 2230.17 1676.5 2232.5C1675.59 2237.65 1674.09 2242.65 1672 2247.5C1662.94 2268.95 1654.44 2290.62 1646.5 2312.5C1651.55 2333.32 1661.71 2350.99 1677 2365.5C1704.47 2354.66 1729.97 2340.49 1753.5 2323C1768.68 2311.57 1783.68 2299.91 1798.5 2288C1808.07 2279.1 1816.9 2269.6 1825 2259.5C1824.91 2256.36 1823.41 2253.86 1820.5 2252C1807.37 2243.35 1794.87 2233.85 1783 2223.5C1780.98 2221.03 1781.14 2218.86 1783.5 2217C1813.68 2209.5 1838.84 2194 1859 2170.5C1880.91 2140.04 1887.91 2106.37 1880 2069.5C1871.75 2043.58 1854.92 2025.75 1829.5 2016C1817.65 2012.46 1805.65 2009.63 1793.5 2007.5C1816.9 1995.93 1835.73 1979.27 1850 1957.5C1868.6 1920.74 1867.26 1884.74 1846 1849.5C1835.19 1834.35 1821.35 1822.85 1804.5 1815C1790.48 1810.74 1776.14 1809.4 1761.5 1811C1752.73 1812.13 1744.06 1813.46 1735.5 1815C1758.91 1786.87 1767.08 1754.7 1760 1718.5C1746.04 1682.87 1720.54 1660.37 1683.5 1651C1672.92 1649.01 1662.25 1647.68 1651.5 1647C1649.27 1646.88 1647.44 1646.05 1646 1644.5C1623.6 1675.73 1595.43 1700.4 1561.5 1718.5C1557.71 1718.41 1556.38 1716.74 1557.5 1713.5C1574.25 1684.62 1578.41 1653.95 1570 1621.5C1559.26 1593.75 1540.09 1574.25 1512.5 1563C1504.1 1559.64 1495.43 1557.31 1486.5 1556C1468.82 1555.05 1451.16 1554.05 1433.5 1553C1432.91 1551.49 1432.24 1549.99 1431.5 1548.5C1424.74 1571.85 1412.08 1591.35 1393.5 1607C1377.56 1619.42 1360.23 1629.59 1341.5 1637.5C1337.53 1638.2 1336.2 1636.87 1337.5 1633.5C1353.49 1608.62 1358.32 1581.62 1352 1552.5C1343.09 1523.59 1324.92 1502.75 1297.5 1490C1275.14 1480.21 1252.14 1472.21 1228.5 1466C1224.67 1464.83 1222.17 1462.33 1221 1458.5C1206.28 1479.22 1187.78 1495.72 1165.5 1508C1150.18 1516.05 1134.51 1523.21 1118.5 1529.5C1117.17 1529.5 1116.5 1528.83 1116.5 1527.5C1143.6 1494.33 1149.43 1457.66 1134 1417.5C1118.61 1388.45 1095.11 1369.29 1063.5 1360C1039.3 1354.91 1015.3 1355.74 991.5 1362.5C989.82 1362.71 988.82 1362.05 988.5 1360.5C996.68 1344.94 1000.68 1328.28 1000.5 1310.5C999.09 1294.1 994.92 1278.43 988 1263.5C970.06 1235.28 953.39 1206.28 938 1176.5C927.24 1151.98 919.07 1126.65 913.5 1100.5C914.08 1096.35 913.41 1092.68 911.5 1089.5C906.51 1063.05 904.17 1036.22 904.5 1009C904.69 1002.49 905.02 995.99 905.5 989.5C902.05 989.19 898.72 988.35 895.5 987C882.67 980.94 869.67 975.28 856.5 970C844.12 966.94 831.79 964.11 819.5 961.5C841.7 953.23 862.36 942.07 881.5 928C888.67 922.17 895.17 915.67 901 908.5C912.29 894.09 923.45 879.59 934.5 865C942.39 865.32 950.05 866.48 957.5 868.5C957.08 869.22 956.42 869.72 955.5 870C958.37 870.31 961.2 870.81 964 871.5C965.88 869.88 967.21 870.21 968 872.5C968.89 871.92 969.89 871.59 971 871.5C972.84 873.24 975.68 874.24 979.5 874.5C980.89 874.38 982.23 874.05 983.5 873.5C983.83 874.17 984.17 874.83 984.5 875.5C986.41 874.65 988.41 874.32 990.5 874.5C1016.46 878.77 1042.13 883.1 1067.5 887.5C1037.24 937.96 1024.74 992.62 1030 1051.5C1034.64 1108.43 1052.97 1160.43 1085 1207.5C1115.6 1252.89 1153.43 1291.05 1198.5 1322C1258.72 1362.43 1324.05 1392.1 1394.5 1411C1427.05 1419.41 1459.72 1427.24 1492.5 1434.5C1494.31 1436.94 1496.48 1438.27 1499 1438.5C1500.36 1437.62 1501.86 1437.29 1503.5 1437.5C1572.1 1450.98 1638.76 1470.81 1703.5 1497C1752.6 1518.7 1798.26 1545.7 1840.5 1578C1950.44 1669.02 2010.94 1786.19 2022 1929.5C2025.39 1970.52 2025.22 2011.52 2021.5 2052.5C2020.37 2054.97 2020.2 2057.63 2021 2060.5C2021.72 2059.96 2022.22 2059.29 2022.5 2058.5C2103.02 1978.18 2173.18 1889.84 2233 1793.5C2271.73 1730.95 2310.23 1668.28 2348.5 1605.5C2350.18 1606.18 2350.84 1607.52 2350.5 1609.5C2337.74 1738.87 2304.24 1862.54 2250 1980.5C2138.31 2218.52 1967.14 2400.69 1736.5 2527C1500.71 2649.75 1251.38 2690.42 988.5 2649C674.24 2589.89 422.4 2432.72 233 2177.5C187.36 2113.58 147.86 2045.91 114.5 1974.5C115.03 1963.96 112.7 1954.3 107.5 1945.5C107.5 1945.17 107.5 1944.83 107.5 1944.5C106.725 1939.83 105.559 1935.16 104 1930.5C103.26 1928.68 102.093 1927.35 100.5 1926.5C88.0621 1895.42 78.7291 1863.42 72.5001 1830.5C71.7931 1821.35 70.2931 1812.35 68.0001 1803.5C66.4721 1799.36 65.4721 1795.03 65.0001 1790.5C64.6171 1789.94 64.1171 1789.61 63.5001 1789.5C48.1191 1713.45 45.2861 1636.79 55.0001 1559.5C64.8901 1481.09 94.8901 1411.76 145 1351.5C158.91 1336.41 174.41 1323.41 191.5 1312.5C192.49 1312.67 193.16 1312.34 193.5 1311.5C200.97 1307.26 208.31 1302.76 215.5 1298C217.81 1297.5 220.14 1297.34 222.5 1297.5C176.59 1360.44 156.09 1431.1 161 1509.5C166.93 1570.92 185.93 1627.92 218 1680.5C236.88 1713.05 259.88 1742.38 287 1768.5C334.7 1731.58 388.53 1708.08 448.5 1698C505.28 1689.42 560.28 1695.75 613.5 1717C673.11 1744.4 716.61 1787.9 744 1847.5C762.65 1887.45 773.15 1929.45 775.5 1973.5C775.5 1975.17 775.5 1976.83 775.5 1978.5C776.79 1978.74 777.79 1978.4 778.5 1977.5C787.87 1967.63 796.71 1957.29 805 1946.5C815.16 1927.38 818.83 1907.05 816 1885.5C812.96 1860.42 802.29 1839.42 784 1822.5C783.31 1821.67 783.48 1821 784.5 1820.5C845.22 1847.38 890.05 1890.72 919 1950.5C929.2 1976.76 939.2 2003.09 949 2029.5C976.71 2090.63 1024.21 2123.46 1091.5 2128C1151.9 2129.2 1204.9 2110.2 1250.5 2071C1259.7 2062.97 1268.37 2054.47 1276.5 2045.5C1278.26 2046.55 1278.92 2048.22 1278.5 2050.5C1273.78 2103.17 1255.95 2150.84 1225 2193.5C1159.4 2281.31 1071.4 2326.64 961 2329.5C886.29 2328.6 820.12 2304.77 762.5 2258C718.42 2217.35 690.25 2167.52 678 2108.5C674.01 2084.26 670.68 2059.92 668 2035.5C663.96 1992.6 646.46 1956.43 615.5 1927C577.53 1896.95 535.86 1890.62 490.5 1908C450.56 1928.29 426.06 1960.45 417 2004.5C412.99 2037.35 415.66 2069.68 425 2101.5C438.15 2145.13 458.15 2185.13 485 2221.5C533.6 2285.66 591.76 2339.16 659.5 2382C828.81 2488.86 1011.47 2521.19 1207.5 2479C1271.03 2462.56 1329.69 2435.9 1383.5 2399C1415.67 2374.83 1443.83 2346.67 1468 2314.5C1523.39 2236.46 1537.39 2151.46 1510 2059.5C1495.37 2020.89 1473.71 1986.89 1445 1957.5C1413.34 1926.92 1378.17 1901.08 1339.5 1880C1317.11 1868.8 1294.44 1858.14 1271.5 1848C1210.25 1824.87 1148.92 1802.04 1087.5 1779.5C1086.61 1778.22 1085.61 1778.22 1084.5 1779.5C1084.62 1780.11 1084.96 1780.44 1085.5 1780.5C1105.52 1822.02 1135.18 1854.85 1174.5 1879C1191.27 1887.86 1208.27 1896.02 1225.5 1903.5C1225.5 1904.83 1225.5 1906.17 1225.5 1907.5C1224.7 1908.67 1221.7 1909.01 1216.5 1908.5C1185.27 1907.24 1154.6 1902.41 1124.5 1894C986.53 1852.31 878.03 1771.48 799 1651.5C784.54 1629.59 771.88 1606.59 761 1582.5C756.07 1571.53 752.23 1560.2 749.5 1548.5C749.61 1546.62 749.11 1546.29 748 1547.5C747.51 1548.79 747.34 1550.13 747.5 1551.5C742.43 1584.34 745.59 1616.34 757 1647.5C764.2 1664.23 772.2 1680.57 781 1696.5C791.92 1713.57 803.75 1729.9 816.5 1745.5C816.41 1746.5 816.75 1747.33 817.5 1748C816.91 1748.46 816.24 1748.63 815.5 1748.5C662.58 1674.47 573.08 1553.13 547 1384.5C544.79 1367.89 543.13 1351.22 542 1334.5C541.75 1299.16 541.75 1263.83 542 1228.5C535.69 1207.6 531.69 1186.27 530 1164.5C505.76 1195.67 491.43 1231 487 1270.5C484.4 1289.08 483.23 1307.75 483.5 1326.5C484.09 1330.97 483.42 1334.97 481.5 1338.5C456.42 1291.25 444.75 1240.75 446.5 1187C448.2 1109.37 467.03 1036.21 503 967.5C516.62 943.08 531.12 919.25 546.5 896C508.48 905.77 476.65 925.6 451 955.5C437.9 971.27 425.56 987.6 414 1004.5C410.37 1011.42 407.21 1018.42 404.5 1025.5C402.61 1023.01 401.95 1020.01 402.5 1016.5C402.08 948.25 420.92 885.92 459 829.5C486.88 789.96 520.71 756.46 560.5 729C580.83 715.84 602.5 705.34 625.5 697.5C600.42 683.31 573.42 675.81 544.5 675C497.78 672.54 453.78 682.21 412.5 704C410.56 704.81 408.56 705.31 406.5 705.5C428.86 670.97 457.19 642.14 491.5 619C548.73 582.35 611.4 561.35 679.5 556C694.79 554.36 710.13 553.53 725.5 553.5C736.17 553.5 746.83 553.5 757.5 553.5C757.74 552.21 757.4 551.21 756.5 550.5C739.9 530.41 719.9 514.57 696.5 503C662.63 487.7 627.3 478.37 590.5 475C626.27 457.64 663.94 446.3 703.5 441C772.43 431 840.43 435.33 907.5 454C899.21 494.01 903.71 532.84 921 570.5C942.25 616.24 973.42 653.57 1014.5 682.5Z" fill="#010101"/>
<path fill-rule="evenodd" clip-rule="evenodd" d="M1469.5 447.5C1468.83 447.5 1468.5 447.83 1468.5 448.5C1466.25 446.67 1465.08 444.34 1465 441.5C1466.75 443.35 1468.25 445.35 1469.5 447.5Z" fill="#8C8D92"/>
<path fill-rule="evenodd" clip-rule="evenodd" d="M979.5 523.5C976.82 523.52 975.49 524.86 975.5 527.5C972.37 524.9 971.2 521.57 972 517.5C974.48 519.64 976.98 521.64 979.5 523.5Z" fill="#2B2B2B"/>
<path fill-rule="evenodd" clip-rule="evenodd" d="M1360.5 523.5C1361.1 523.74 1361.43 524.24 1361.5 525C1360.97 526.72 1360.3 526.88 1359.5 525.5C1360.34 525.16 1360.67 524.49 1360.5 523.5Z" fill="#969699"/>
<path fill-rule="evenodd" clip-rule="evenodd" d="M1673.5 538.5C1674.27 539.17 1674.93 540.01 1675.5 541C1672.18 541.5 1668.85 541.67 1665.5 541.5C1668.48 541.1 1671.14 540.1 1673.5 538.5Z" fill="#68696B"/>
<path fill-rule="evenodd" clip-rule="evenodd" d="M756.5 550.5C757.4 551.21 757.74 552.21 757.5 553.5C746.83 553.5 736.17 553.5 725.5 553.5C736.04 553.16 746.37 552.16 756.5 550.5Z" fill="#9B9D9E"/>
<path fill-rule="evenodd" clip-rule="evenodd" d="M1241.5 602.5C1243.03 602.43 1244.03 603.09 1244.5 604.5C1242.97 604.57 1241.97 603.91 1241.5 602.5Z" fill="#9D9DA0"/>
<path fill-rule="evenodd" clip-rule="evenodd" d="M1014.5 682.5C1022.48 685.79 1021.81 687.45 1012.5 687.5C1013.94 686.18 1014.61 684.51 1014.5 682.5Z" fill="#434241"/>
<path fill-rule="evenodd" clip-rule="evenodd" d="M946.5 783.5C946.25 785.17 945.58 786.67 944.5 788C947.36 788.18 950.03 788.68 952.5 789.5C947.77 789.78 943.1 789.44 938.5 788.5C937.23 787.64 937.39 786.97 939 786.5C941.46 785.35 943.96 784.35 946.5 783.5Z" fill="#2D2E2E"/>
<path fill-rule="evenodd" clip-rule="evenodd" d="M1737.5 800.5C1739.26 801.46 1741.26 801.79 1743.5 801.5C1741.31 802.8 1738.97 802.8 1736.5 801.5C1736.62 800.89 1736.96 800.56 1737.5 800.5Z" fill="#767878"/>
<path fill-rule="evenodd" clip-rule="evenodd" d="M1299.5 833.5C1299.83 832.83 1300.17 832.17 1300.5 831.5C1301.85 830.97 1303.18 830.81 1304.5 831C1303.09 832.37 1301.42 833.21 1299.5 833.5Z" fill="#7C797E"/>
<path fill-rule="evenodd" clip-rule="evenodd" d="M957.5 868.5C968.76 869.76 979.76 871.76 990.5 874.5C988.41 874.32 986.41 874.65 984.5 875.5C984.17 874.83 983.83 874.17 983.5 873.5C982.23 874.05 980.89 874.38 979.5 874.5C975.68 874.24 972.84 873.24 971 871.5C969.89 871.59 968.89 871.92 968 872.5C967.21 870.21 965.88 869.88 964 871.5C961.2 870.81 958.37 870.31 955.5 870C956.42 869.72 957.08 869.22 957.5 868.5Z" fill="#2B2C2D"/>
<path fill-rule="evenodd" clip-rule="evenodd" d="M283.5 897.5C285.18 897.29 286.18 897.95 286.5 899.5C262.21 928.4 242.21 960.07 226.5 994.5C224.9 995.29 224.23 996.62 224.5 998.5C222.46 1003.23 220.46 1007.9 218.5 1012.5C216.9 1013.29 216.23 1014.62 216.5 1016.5C178.98 1110.21 170.31 1206.55 190.5 1305.5C190.3 1307.95 190.63 1310.28 191.5 1312.5C174.41 1323.41 158.91 1336.41 145 1351.5C94.8899 1411.76 64.8899 1481.09 54.9999 1559.5C45.2859 1636.79 48.1189 1713.45 63.4999 1789.5C65.7409 1803.45 68.7409 1817.12 72.4999 1830.5C78.7289 1863.42 88.0619 1895.42 100.5 1926.5C102.493 1931.32 103.993 1936.32 105 1941.5C105.377 1942.94 106.21 1943.94 107.5 1944.5C107.5 1944.83 107.5 1945.17 107.5 1945.5C108.082 1951.08 109.582 1956.41 112 1961.5C112.8 1964.37 112.63 1967.03 111.5 1969.5C56.7079 1859.66 22.3739 1744.16 8.49995 1623C8.83295 1622.67 9.16695 1622.33 9.49995 1622C6.35695 1601.99 4.35695 1581.83 3.49995 1561.5C4.13895 1560.9 4.47195 1560.07 4.49995 1559C4.02795 1555.32 3.36195 1551.82 2.49995 1548.5C-2.53205 1456.88 3.30195 1365.88 19.9999 1275.5C33.8729 1201.2 59.2059 1131.2 95.9999 1065.5C118.7 1027.32 145.87 992.48 177.5 961C201.4 939.04 228.07 921.04 257.5 907C263.42 904.53 269.42 902.37 275.5 900.5C277.55 900.6 279.22 899.93 280.5 898.5C281.21 897.6 282.21 897.26 283.5 897.5Z" fill="#B40502"/>
<path fill-rule="evenodd" clip-rule="evenodd" d="M283.5 897.5C284.57 896.57 285.9 896.23 287.5 896.5C287.74 897.79 287.4 898.79 286.5 899.5C286.18 897.95 285.18 897.29 283.5 897.5Z" fill="#9E8B84"/>
<path fill-rule="evenodd" clip-rule="evenodd" d="M280.5 898.5C279.22 899.93 277.55 900.6 275.5 900.5C276.78 899.07 278.45 898.4 280.5 898.5Z" fill="#9F7572"/>
<path fill-rule="evenodd" clip-rule="evenodd" d="M1142.5 952.5C1142.97 953.91 1143.97 954.57 1145.5 954.5C1138.12 960.32 1137.12 959.66 1142.5 952.5Z" fill="#474A4C"/>
<path fill-rule="evenodd" clip-rule="evenodd" d="M226.5 994.5C226.34 996.15 225.67 997.49 224.5 998.5C224.23 996.62 224.9 995.29 226.5 994.5Z" fill="#A67F83"/>
<path fill-rule="evenodd" clip-rule="evenodd" d="M218.5 1012.5C218.34 1014.15 217.67 1015.49 216.5 1016.5C216.23 1014.62 216.9 1013.29 218.5 1012.5Z" fill="#9A6F79"/>
<path fill-rule="evenodd" clip-rule="evenodd" d="M402.5 1016.5C401.95 1020.01 402.61 1023.01 404.5 1025.5C403.79 1026.4 402.79 1026.74 401.5 1026.5C401.19 1022.96 401.52 1019.62 402.5 1016.5Z" fill="#8E9596"/>
<path fill-rule="evenodd" clip-rule="evenodd" d="M1899.5 1076.5C1901.31 1077.92 1901.97 1079.92 1901.5 1082.5C1900.54 1080.7 1899.88 1078.7 1899.5 1076.5Z" fill="#4E4F4F"/>
<path fill-rule="evenodd" clip-rule="evenodd" d="M911.5 1089.5C913.41 1092.68 914.08 1096.35 913.5 1100.5C912.1 1097.09 911.43 1093.42 911.5 1089.5Z" fill="#3E3F3F"/>
<path fill-rule="evenodd" clip-rule="evenodd" d="M1747.5 1162.5C1747.26 1163.79 1747.6 1164.79 1748.5 1165.5C1747.53 1166.75 1746.86 1166.42 1746.5 1164.5C1746.54 1163.58 1746.88 1162.92 1747.5 1162.5Z" fill="#808581"/>
<path fill-rule="evenodd" clip-rule="evenodd" d="M747.5 1180.5C746.83 1180.5 746.5 1180.83 746.5 1181.5C745.73 1180.83 745.07 1179.99 744.5 1179C746 1178.42 747 1178.92 747.5 1180.5Z" fill="#8B8C94"/>
<path fill-rule="evenodd" clip-rule="evenodd" d="M2209.5 1186.5C2209.67 1187.49 2209.34 1188.16 2208.5 1188.5C2207.22 1187.61 2207.22 1186.61 2208.5 1185.5C2209.11 1185.62 2209.44 1185.96 2209.5 1186.5Z" fill="#977C82"/>
<path fill-rule="evenodd" clip-rule="evenodd" d="M2209.5 1186.5C2220.01 1191.25 2229.68 1197.25 2238.5 1204.5C2238.97 1205.91 2239.97 1206.57 2241.5 1206.5C2256.66 1216.82 2270.16 1229.15 2282 1243.5C2296.47 1261.15 2308.3 1280.49 2317.5 1301.5C2317.23 1303.38 2317.9 1304.71 2319.5 1305.5C2325.74 1319.22 2330.41 1333.55 2333.5 1348.5C2333.08 1350.78 2333.74 1352.45 2335.5 1353.5C2342.14 1381.45 2344.97 1409.78 2344 1438.5C2343.33 1440.5 2342.67 1442.5 2342 1444.5C2310.03 1505.11 2277.03 1565.11 2243 1624.5C2214.08 1672.67 2185.41 1721 2157 1769.5C2145.25 1786.66 2134.25 1804.33 2124 1822.5C2114.58 1835.74 2105.41 1849.07 2096.5 1862.5C2095.09 1862.97 2094.43 1863.97 2094.5 1865.5C2092.69 1864.08 2092.03 1862.08 2092.5 1859.5C2088.82 1801.75 2076.82 1745.75 2056.5 1691.5C2056.6 1689.45 2055.93 1687.78 2054.5 1686.5C2054.77 1684.62 2054.1 1683.29 2052.5 1682.5C2053.81 1681.11 2053.48 1680.11 2051.5 1679.5C2048.26 1673.36 2045.26 1667.02 2042.5 1660.5C2041.34 1656.85 2039.67 1653.52 2037.5 1650.5C2035.8 1648.43 2034.47 1646.1 2033.5 1643.5C2033.71 1641.82 2033.05 1640.82 2031.5 1640.5C2028.14 1634.82 2024.81 1629.15 2021.5 1623.5C2021.57 1621.97 2020.91 1620.97 2019.5 1620.5C2012.55 1610.22 2005.22 1600.22 1997.5 1590.5C1997.5 1589.17 1996.83 1588.5 1995.5 1588.5C1992.93 1585.68 1990.59 1582.68 1988.5 1579.5C1988.5 1578.17 1987.83 1577.5 1986.5 1577.5C1984.53 1575.19 1982.53 1572.86 1980.5 1570.5C1980.5 1568.5 1979.5 1567.5 1977.5 1567.5C1976.83 1567.5 1976.5 1567.17 1976.5 1566.5C1976.5 1564.5 1975.5 1563.5 1973.5 1563.5C1967.83 1558.5 1962.5 1553.17 1957.5 1547.5C1957.5 1545.5 1956.5 1544.5 1954.5 1544.5C1926.12 1519.46 1894.78 1498.62 1860.5 1482C1849.52 1477.51 1838.52 1473.34 1827.5 1469.5C1827.5 1468.83 1827.5 1468.17 1827.5 1467.5C1849.56 1454.13 1872.56 1442.3 1896.5 1432C1948.36 1412.92 2000.36 1411.58 2052.5 1428C2059.76 1430.63 2066.76 1433.8 2073.5 1437.5C2074.03 1439.45 2075.37 1440.45 2077.5 1440.5C2089.62 1446.4 2100.95 1453.56 2111.5 1462C2149.18 1494.86 2176.85 1534.7 2194.5 1581.5C2195.36 1582.58 2196.36 1582.75 2197.5 1582C2212.66 1559.49 2226.16 1535.99 2238 1511.5C2244.03 1495.35 2246.7 1478.68 2246 1461.5C2238.82 1426.15 2217.32 1406.15 2181.5 1401.5C2181.5 1400.17 2181.5 1398.83 2181.5 1397.5C2183.03 1397.57 2184.03 1396.91 2184.5 1395.5C2185.17 1394.17 2186.17 1393.17 2187.5 1392.5C2189.5 1392.5 2190.5 1391.5 2190.5 1389.5C2192.17 1387.17 2194.17 1385.17 2196.5 1383.5C2197.91 1383.03 2198.57 1382.03 2198.5 1380.5C2230.39 1340.23 2240.55 1294.9 2229 1244.5C2225.22 1224.64 2218.38 1205.98 2208.5 1188.5C2209.34 1188.16 2209.67 1187.49 2209.5 1186.5Z" fill="#B40501"/>
<path fill-rule="evenodd" clip-rule="evenodd" d="M2238.5 1204.5C2240.03 1204.43 2241.03 1205.09 2241.5 1206.5C2239.97 1206.57 2238.97 1205.91 2238.5 1204.5Z" fill="#99606E"/>
<path fill-rule="evenodd" clip-rule="evenodd" d="M1443.5 1214.5C1445.42 1218.03 1446.09 1222.03 1445.5 1226.5C1444.21 1222.73 1443.54 1218.73 1443.5 1214.5Z" fill="#3D3E3F"/>
<path fill-rule="evenodd" clip-rule="evenodd" d="M2317.5 1301.5C2318.67 1302.51 2319.34 1303.85 2319.5 1305.5C2317.9 1304.71 2317.23 1303.38 2317.5 1301.5Z" fill="#9A717B"/>
<path fill-rule="evenodd" clip-rule="evenodd" d="M190.5 1305.5C191.01 1307.75 192.01 1309.75 193.5 1311.5C193.16 1312.34 192.49 1312.67 191.5 1312.5C190.63 1310.28 190.3 1307.95 190.5 1305.5Z" fill="#CEA1A2"/>
<path fill-rule="evenodd" clip-rule="evenodd" d="M404.5 1316.5C405.56 1318.1 405.56 1319.77 404.5 1321.5C404.5 1322.17 404.17 1322.5 403.5 1322.5C402.09 1322.97 401.43 1323.97 401.5 1325.5C359.3 1394.53 351.46 1467.53 378 1544.5C383.06 1556.95 388.39 1569.28 394 1581.5C404.36 1599.33 414.86 1617 425.5 1634.5C424.89 1635.39 424.56 1636.39 424.5 1637.5C386.58 1641.98 350.58 1652.64 316.5 1669.5C315.17 1669.17 313.83 1668.83 312.5 1668.5C299.53 1655.86 288.86 1641.53 280.5 1625.5C280.5 1624.17 279.83 1623.5 278.5 1623.5C277.23 1621.29 276.23 1618.95 275.5 1616.5C275.34 1614.85 274.67 1613.51 273.5 1612.5C271.9 1611.71 271.23 1610.38 271.5 1608.5C271.34 1606.85 270.67 1605.51 269.5 1604.5C253.42 1571.34 245.76 1536.17 246.5 1499C245.68 1465.77 251.84 1433.6 265 1402.5C293.36 1344.72 339.86 1316.06 404.5 1316.5Z" fill="#B40602"/>
<path fill-rule="evenodd" clip-rule="evenodd" d="M1508.5 1311.5C1517.02 1324.69 1515.02 1326.03 1502.5 1315.5C1506.48 1317.29 1508.48 1315.96 1508.5 1311.5Z" fill="#282929"/>
<path fill-rule="evenodd" clip-rule="evenodd" d="M404.5 1316.5C407.88 1317.63 407.88 1319.3 404.5 1321.5C405.56 1319.77 405.56 1318.1 404.5 1316.5Z" fill="#A88A81"/>
<path fill-rule="evenodd" clip-rule="evenodd" d="M403.5 1322.5C403.57 1324.03 402.91 1325.03 401.5 1325.5C401.43 1323.97 402.09 1322.97 403.5 1322.5Z" fill="#B98C92"/>
<path fill-rule="evenodd" clip-rule="evenodd" d="M483.5 1326.5C484.81 1331.35 484.81 1336.35 483.5 1341.5C482.57 1340.64 481.91 1339.64 481.5 1338.5C483.42 1334.97 484.09 1330.97 483.5 1326.5Z" fill="#6B6C6E"/>
<path fill-rule="evenodd" clip-rule="evenodd" d="M2333.5 1348.5C2334.31 1350.03 2334.98 1351.69 2335.5 1353.5C2333.74 1352.45 2333.08 1350.78 2333.5 1348.5Z" fill="#9F636C"/>
<path fill-rule="evenodd" clip-rule="evenodd" d="M988.5 1360.5C988.82 1362.05 989.82 1362.71 991.5 1362.5C989.69 1364.11 987.69 1364.44 985.5 1363.5C986.19 1362.15 987.19 1361.15 988.5 1360.5Z" fill="#585958"/>
<path fill-rule="evenodd" clip-rule="evenodd" d="M2198.5 1380.5C2198.57 1382.03 2197.91 1383.03 2196.5 1383.5C2196.43 1381.97 2197.09 1380.97 2198.5 1380.5Z" fill="#AC7F90"/>
<path fill-rule="evenodd" clip-rule="evenodd" d="M2190.5 1389.5C2190.5 1391.5 2189.5 1392.5 2187.5 1392.5C2188.17 1391.17 2189.17 1390.17 2190.5 1389.5Z" fill="#844B56"/>
<path fill-rule="evenodd" clip-rule="evenodd" d="M2184.5 1395.5C2184.03 1396.91 2183.03 1397.57 2181.5 1397.5C2181.97 1396.09 2182.97 1395.43 2184.5 1395.5Z" fill="#896B74"/>
<path fill-rule="evenodd" clip-rule="evenodd" d="M2181.5 1397.5C2181.5 1398.83 2181.5 1400.17 2181.5 1401.5C2177.83 1400.71 2177.83 1399.37 2181.5 1397.5Z" fill="#8E6973"/>
<path fill-rule="evenodd" clip-rule="evenodd" d="M866.5 1403.5C865.66 1403.84 865.33 1404.51 865.5 1405.5C864.88 1405.39 864.38 1405.06 864 1404.5C863.32 1400.96 864.15 1400.62 866.5 1403.5Z" fill="#8C909C"/>
<path fill-rule="evenodd" clip-rule="evenodd" d="M866.5 1403.5C868.15 1403.66 869.49 1404.33 870.5 1405.5C868.62 1405.77 867.29 1405.1 866.5 1403.5Z" fill="#92959E"/>
<path fill-rule="evenodd" clip-rule="evenodd" d="M974.5 1420.5C976.87 1422.54 976.2 1423.54 972.5 1423.5C973.55 1422.78 974.22 1421.78 974.5 1420.5Z" fill="#9D9C9B"/>
<path fill-rule="evenodd" clip-rule="evenodd" d="M1492.5 1434.5C1496.4 1435.06 1500.06 1436.06 1503.5 1437.5C1501.86 1437.29 1500.36 1437.62 1499 1438.5C1496.48 1438.27 1494.31 1436.94 1492.5 1434.5Z" fill="#3A3A3B"/>
<path fill-rule="evenodd" clip-rule="evenodd" d="M2073.5 1437.5C2075.23 1438.03 2076.56 1439.03 2077.5 1440.5C2075.37 1440.45 2074.03 1439.45 2073.5 1437.5Z" fill="#AB6E74"/>
<path fill-rule="evenodd" clip-rule="evenodd" d="M1827.5 1467.5C1827.5 1468.17 1827.5 1468.83 1827.5 1469.5C1825.07 1469.21 1825.07 1468.55 1827.5 1467.5Z" fill="#A07E86"/>
<path fill-rule="evenodd" clip-rule="evenodd" d="M1116.5 1527.5C1116.5 1528.83 1117.17 1529.5 1118.5 1529.5C1116.27 1531.2 1113.77 1532.53 1111 1533.5C1110.33 1532.83 1110.33 1532.17 1111 1531.5C1112.99 1530.34 1114.83 1529 1116.5 1527.5Z" fill="#575959"/>
<path fill-rule="evenodd" clip-rule="evenodd" d="M1954.5 1544.5C1956.5 1544.5 1957.5 1545.5 1957.5 1547.5C1956.17 1546.83 1955.17 1545.83 1954.5 1544.5Z" fill="#B2687F"/>
<path fill-rule="evenodd" clip-rule="evenodd" d="M749.5 1548.5C748.83 1549.5 748.17 1550.5 747.5 1551.5C747.34 1550.13 747.51 1548.79 748 1547.5C749.11 1546.29 749.61 1546.62 749.5 1548.5Z" fill="#77777B"/>
<path fill-rule="evenodd" clip-rule="evenodd" d="M2.50004 1548.5C3.36204 1551.82 4.02804 1555.32 4.50004 1559C4.47204 1560.07 4.13904 1560.9 3.50004 1561.5C2.70504 1557.21 2.37204 1552.88 2.50004 1548.5Z" fill="#CA94AA"/>
<path fill-rule="evenodd" clip-rule="evenodd" d="M1973.5 1563.5C1975.5 1563.5 1976.5 1564.5 1976.5 1566.5C1975.17 1565.83 1974.17 1564.83 1973.5 1563.5Z" fill="#BB7F90"/>
<path fill-rule="evenodd" clip-rule="evenodd" d="M1977.5 1567.5C1979.5 1567.5 1980.5 1568.5 1980.5 1570.5C1979.17 1569.83 1978.17 1568.83 1977.5 1567.5Z" fill="#B37386"/>
<path fill-rule="evenodd" clip-rule="evenodd" d="M1986.5 1577.5C1987.83 1577.5 1988.5 1578.17 1988.5 1579.5C1987.5 1579.17 1986.83 1578.5 1986.5 1577.5Z" fill="#BE7F95"/>
<path fill-rule="evenodd" clip-rule="evenodd" d="M1995.5 1588.5C1996.83 1588.5 1997.5 1589.17 1997.5 1590.5C1996.5 1590.17 1995.83 1589.5 1995.5 1588.5Z" fill="#B58A9F"/>
<path fill-rule="evenodd" clip-rule="evenodd" d="M269.5 1604.5C270.67 1605.51 271.34 1606.85 271.5 1608.5C269.9 1607.71 269.23 1606.38 269.5 1604.5Z" fill="#C298A9"/>
<path fill-rule="evenodd" clip-rule="evenodd" d="M2350.5 1609.5C2350.84 1607.52 2350.18 1606.18 2348.5 1605.5C2349.01 1603.77 2349.84 1603.43 2351 1604.5C2351.78 1606.39 2351.61 1608.05 2350.5 1609.5Z" fill="#8E8F90"/>
<path fill-rule="evenodd" clip-rule="evenodd" d="M273.5 1612.5C274.67 1613.51 275.34 1614.85 275.5 1616.5C273.9 1615.71 273.23 1614.38 273.5 1612.5Z" fill="#C48799"/>
<path fill-rule="evenodd" clip-rule="evenodd" d="M2019.5 1620.5C2020.91 1620.97 2021.57 1621.97 2021.5 1623.5C2020.09 1623.03 2019.43 1622.03 2019.5 1620.5Z" fill="#DDB7CB"/>
<path fill-rule="evenodd" clip-rule="evenodd" d="M278.5 1623.5C279.83 1623.5 280.5 1624.17 280.5 1625.5C279.5 1625.17 278.83 1624.5 278.5 1623.5Z" fill="#BB8494"/>
<path fill-rule="evenodd" clip-rule="evenodd" d="M425.5 1634.5C428.05 1636.01 427.71 1637.01 424.5 1637.5C424.56 1636.39 424.89 1635.39 425.5 1634.5Z" fill="#926E77"/>
<path fill-rule="evenodd" clip-rule="evenodd" d="M1337.5 1633.5C1336.2 1636.87 1337.53 1638.2 1341.5 1637.5C1337.9 1639.93 1333.9 1641.59 1329.5 1642.5C1332.2 1639.47 1334.86 1636.47 1337.5 1633.5Z" fill="#373939"/>
<path fill-rule="evenodd" clip-rule="evenodd" d="M2031.5 1640.5C2033.05 1640.82 2033.71 1641.82 2033.5 1643.5C2032.09 1643.03 2031.43 1642.03 2031.5 1640.5Z" fill="#CA96AB"/>
<path fill-rule="evenodd" clip-rule="evenodd" d="M1329.5 1642.5C1328.83 1643.17 1328.83 1643.17 1329.5 1642.5Z" fill="#BABEC3"/>
<path fill-rule="evenodd" clip-rule="evenodd" d="M2037.5 1650.5C2039.67 1653.52 2041.34 1656.85 2042.5 1660.5C2039.79 1657.75 2038.13 1654.42 2037.5 1650.5Z" fill="#DEA8BF"/>
<path fill-rule="evenodd" clip-rule="evenodd" d="M312.5 1668.5C313.83 1668.83 315.17 1669.17 316.5 1669.5C314.87 1670.85 313.54 1670.52 312.5 1668.5Z" fill="#BE9BA6"/>
<path fill-rule="evenodd" clip-rule="evenodd" d="M2051.5 1679.5C2053.48 1680.11 2053.81 1681.11 2052.5 1682.5C2051.6 1681.79 2051.26 1680.79 2051.5 1679.5Z" fill="#CF9FB6"/>
<path fill-rule="evenodd" clip-rule="evenodd" d="M2052.5 1682.5C2054.1 1683.29 2054.77 1684.62 2054.5 1686.5C2053.33 1685.49 2052.66 1684.15 2052.5 1682.5Z" fill="#CD9BB3"/>
<path fill-rule="evenodd" clip-rule="evenodd" d="M2054.5 1686.5C2055.93 1687.78 2056.6 1689.45 2056.5 1691.5C2055.07 1690.22 2054.4 1688.55 2054.5 1686.5Z" fill="#CA8BA4"/>
<path fill-rule="evenodd" clip-rule="evenodd" d="M1557.5 1713.5C1556.38 1716.74 1557.71 1718.41 1561.5 1718.5C1558.07 1721.41 1554.24 1723.75 1550 1725.5C1549.5 1725.17 1549 1724.83 1548.5 1724.5C1551.28 1720.58 1554.28 1716.91 1557.5 1713.5Z" fill="#2A2B2C"/>
<path fill-rule="evenodd" clip-rule="evenodd" d="M816.5 1745.5C818.63 1747.13 820.63 1748.96 822.5 1751C819.76 1751.3 817.42 1750.46 815.5 1748.5C816.24 1748.63 816.91 1748.46 817.5 1748C816.75 1747.33 816.41 1746.5 816.5 1745.5Z" fill="#4B4C4D"/>
<path fill-rule="evenodd" clip-rule="evenodd" d="M1087.5 1779.5C1086.51 1779.33 1085.84 1779.66 1085.5 1780.5C1084.96 1780.44 1084.62 1780.11 1084.5 1779.5C1085.61 1778.22 1086.61 1778.22 1087.5 1779.5Z" fill="#A5A6B1"/>
<path fill-rule="evenodd" clip-rule="evenodd" d="M63.5 1789.5C64.117 1789.61 64.617 1789.94 65 1790.5C65.472 1795.03 66.472 1799.36 68 1803.5C70.293 1812.35 71.793 1821.35 72.5 1830.5C68.741 1817.12 65.741 1803.45 63.5 1789.5Z" fill="#230203"/>
<path fill-rule="evenodd" clip-rule="evenodd" d="M1708.5 1847.5C1710.61 1846.53 1712.94 1846.2 1715.5 1846.5C1715.74 1847.79 1715.4 1848.79 1714.5 1849.5C1713.08 1847.69 1711.08 1847.03 1708.5 1847.5Z" fill="#818386"/>
<path fill-rule="evenodd" clip-rule="evenodd" d="M2092.5 1859.5C2092.03 1862.08 2092.69 1864.08 2094.5 1865.5C2093.79 1866.4 2092.79 1866.74 2091.5 1866.5C2091.2 1863.94 2091.53 1861.61 2092.5 1859.5Z" fill="#C6AFB5"/>
<path fill-rule="evenodd" clip-rule="evenodd" d="M2096.5 1862.5C2096.57 1864.03 2095.91 1865.03 2094.5 1865.5C2094.43 1863.97 2095.09 1862.97 2096.5 1862.5Z" fill="#A47B7F"/>
<path fill-rule="evenodd" clip-rule="evenodd" d="M1630.5 1892.5C1629.45 1893.22 1628.78 1894.22 1628.5 1895.5C1620.39 1889.28 1621.05 1888.28 1630.5 1892.5Z" fill="#97A1B2"/>
<path fill-rule="evenodd" clip-rule="evenodd" d="M1225.5 1903.5C1229.19 1904.18 1232.52 1905.68 1235.5 1908C1229.05 1909.61 1222.71 1909.78 1216.5 1908.5C1221.7 1909.01 1224.7 1908.67 1225.5 1907.5C1225.5 1906.17 1225.5 1904.83 1225.5 1903.5Z" fill="#464748"/>
<path fill-rule="evenodd" clip-rule="evenodd" d="M100.5 1926.5C102.093 1927.35 103.26 1928.68 104 1930.5C105.559 1935.16 106.725 1939.83 107.5 1944.5C106.21 1943.94 105.377 1942.94 105 1941.5C103.993 1936.32 102.493 1931.32 100.5 1926.5Z" fill="#260302"/>
<path fill-rule="evenodd" clip-rule="evenodd" d="M107.5 1945.5C112.7 1954.3 115.03 1963.96 114.5 1974.5C112.75 1973.34 111.75 1971.67 111.5 1969.5C112.63 1967.03 112.8 1964.37 112 1961.5C109.582 1956.41 108.082 1951.08 107.5 1945.5Z" fill="#3B0E13"/>
<path fill-rule="evenodd" clip-rule="evenodd" d="M775.5 1973.5C776.02 1975.22 777.02 1976.55 778.5 1977.5C777.79 1978.4 776.79 1978.74 775.5 1978.5C775.5 1976.83 775.5 1975.17 775.5 1973.5Z" fill="#828282"/>
<path fill-rule="evenodd" clip-rule="evenodd" d="M1775.5 2033.5C1778.19 2033.34 1780.85 2033.5 1783.5 2034C1782.76 2035.04 1781.76 2035.54 1780.5 2035.5C1778.83 2034.83 1777.17 2034.17 1775.5 2033.5Z" fill="#A1A4A5"/>
<path fill-rule="evenodd" clip-rule="evenodd" d="M1278.5 2050.5C1278.92 2048.22 1278.26 2046.55 1276.5 2045.5C1276.81 2044.52 1277.48 2043.86 1278.5 2043.5C1279.8 2045.97 1279.8 2048.31 1278.5 2050.5Z" fill="#787877"/>
<path fill-rule="evenodd" clip-rule="evenodd" d="M1686.5 2051.5C1685.83 2051.5 1685.5 2051.83 1685.5 2052.5C1684.43 2051.75 1684.26 2050.75 1685 2049.5C1685.72 2050.04 1686.22 2050.71 1686.5 2051.5Z" fill="#96959C"/>
<path fill-rule="evenodd" clip-rule="evenodd" d="M2021.5 2052.5C2021.21 2054.74 2021.54 2056.74 2022.5 2058.5C2022.22 2059.29 2021.72 2059.96 2021 2060.5C2020.2 2057.63 2020.37 2054.97 2021.5 2052.5Z" fill="#878686"/>
<path fill-rule="evenodd" clip-rule="evenodd" d="M1679.5 2226.5C1677.94 2228.16 1676.94 2230.16 1676.5 2232.5C1676.5 2230.17 1676.5 2227.83 1676.5 2225.5C1677.79 2225.26 1678.79 2225.6 1679.5 2226.5Z" fill="#545556"/>
<path fill-rule="evenodd" clip-rule="evenodd" d="M1750.5 2231.5C1751.96 2232.41 1752.96 2233.74 1753.5 2235.5C1753.04 2236.3 1752.38 2236.63 1751.5 2236.5C1751.37 2234.78 1751.04 2233.12 1750.5 2231.5Z" fill="#4E5154"/>
</svg>
