<svg xmlns="http://www.w3.org/2000/svg" viewBox="0 0 512 512" width="32" height="32"><path d="M502.31 233.18 278.77 9.65c-12.89-12.86-33.75-12.86-46.68 0l-46.31 46.4 58.88 58.88c13.76-4.59 29.42-1.49 40.3 9.41 11.01 10.99 14.04 26.84 9.34 40.53l56.7 56.75c13.76-4.76 29.59-1.66 40.53 9.28 15.38 15.36 15.38 40.19 0 55.55-15.34 15.34-40.13 15.34-55.47 0-11.5-11.54-14.38-28.52-8.62-42.58l-53.1-52.82v139.2c3.75 1.83 7.3 4.33 10.41 7.42 15.21 15.38 15.21 40.17 0 55.47-15.34 15.38-40.3 15.38-55.66 0-15.34-15.34-15.34-40.08 0-55.42 3.88-3.84 8.26-6.74 12.91-8.66V188.5c-4.63-1.94-9.05-4.74-12.8-8.55-11.63-11.63-14.42-28.63-8.45-42.86l-57.86-58.13L9.61 232.13c-12.8 12.91-12.8 33.79 0 46.7l223.57 223.51c12.89 12.89 33.75 12.89 46.63 0l222.5-222.5c12.91-12.86 12.91-33.75 0-46.66" style="fill:#9a0000"/></svg>