<svg width="32" height="32" viewBox="0 0 32 32" fill="none" xmlns="http://www.w3.org/2000/svg">
<g clip-path="url(#clip0_1_2)">
<path d="M31.3944 14.5737L17.4231 0.603118C16.6175 -0.200632 15.3138 -0.200632 14.5056 0.603118L11.6113 3.50312L15.2913 7.18312C16.1513 6.89624 17.13 7.08999 17.81 7.77124C18.4981 8.45812 18.6875 9.44874 18.3937 10.3044L21.9375 13.8512C22.7975 13.5537 23.7869 13.7475 24.4706 14.4312C25.4319 15.3912 25.4319 16.9431 24.4706 17.9031C23.5119 18.8619 21.9625 18.8619 21.0037 17.9031C20.285 17.1819 20.105 16.1206 20.465 15.2419L17.1462 11.9406V20.6406C17.3806 20.755 17.6025 20.9112 17.7969 21.1044C18.7475 22.0656 18.7475 23.615 17.7969 24.5712C16.8381 25.5325 15.2781 25.5325 14.3181 24.5712C13.3594 23.6125 13.3594 22.0662 14.3181 21.1075C14.5606 20.8675 14.8344 20.6862 15.125 20.5662V11.7812C14.8356 11.66 14.5594 11.485 14.325 11.2469C13.5981 10.52 13.4238 9.45749 13.7969 8.56812L10.1806 4.93499L0.600626 14.5081C-0.199374 15.315 -0.199374 16.62 0.600626 17.4269L14.5738 31.3962C15.3794 32.2019 16.6831 32.2019 17.4881 31.3962L31.3944 17.49C32.2012 16.6862 32.2012 15.3806 31.3944 14.5737Z" fill="white"/>
</g>
<defs>
<clipPath id="clip0_1_2">
<rect width="32" height="32" fill="white"/>
</clipPath>
</defs>
</svg>
