<svg width="64" height="64" viewBox="0 0 64 64" fill="none" xmlns="http://www.w3.org/2000/svg">
<rect width="64" height="64" rx="16" fill="black"/>
<path d="M44.4097 24.9285C44.4097 24.4183 43.8973 21.1019 43.8973 20.5917C43.8973 20.5917 41.7888 20.3928 40.5665 20.8468C39.6821 21.1753 39.0292 21.357 38.0043 22.3774C36.9795 23.3978 36.7232 23.9931 36.467 24.4183C36.5524 25.7788 36.672 28.8571 36.467 30.2857C36.2108 32.0715 35.4422 34.3674 34.1611 36.4083C32.88 38.4492 30.3178 40.7451 29.5492 41.2553C28.9343 41.6635 28.4389 41.9356 28.2681 42.0206C27.4141 42.7009 25.0398 44.2145 22.3751 44.8268C19.7105 45.4391 17.867 45.6126 17.44 45.6126C17.76 46.0918 18.8906 47.2248 19.3005 47.633C19.5514 47.8828 20.0481 48.3397 20.64 48.8068C21.257 49.2936 21.9775 49.7935 22.6314 50.1841C23.7299 50.8403 25.1935 51.3746 26.2184 51.7147C27.2432 52.0548 29.5492 52.48 32.1114 52.48C34.1611 52.48 36.2227 52.1917 37.76 51.6815C38.9898 51.2733 41.0789 50.4392 42.6162 49.4187C42.6162 48.8065 41.7636 47.1678 41.5914 46.8677C41.4191 46.5676 40.3103 44.5717 40.5665 42.5309C40.8227 40.49 41.3351 39.4696 42.36 37.6838C43.3849 35.8981 44.6659 32.0715 44.6659 29.7755C44.6659 27.4796 44.4097 25.4387 44.4097 24.9285Z" fill="white"/>
<path d="M23.6562 29.7755C22.6313 30.5408 19.0443 32.5817 17.7632 36.9185C16.7384 40.388 17.013 44.167 17.44 45.6126C17.867 45.6126 19.7105 45.4391 22.3751 44.8268C25.0398 44.2145 27.4141 42.7009 28.2681 42.0206C28.8659 41.0002 29.8054 39.2145 30.0616 37.6838C30.3178 36.1532 30.0616 33.0578 30.0616 31.8164C30.0616 30.2857 30.5741 27.9219 31.8551 26.7142C33.1362 25.5065 35.3568 24.8434 36.467 24.4183C36.7232 23.9931 36.9795 23.3978 38.0043 22.3774C39.0292 21.357 39.6821 21.1753 40.5665 20.8468C41.7888 20.3928 43.8973 20.5917 43.8973 20.5917C43.8973 20.2205 44.3041 19.5794 45.019 19.061C45.019 19.061 44.3057 18.3437 44.1535 18.0406C44.0013 17.7375 43.6411 17.1222 43.6411 16.51C43.6411 15.8977 43.9827 15.3338 44.1535 15.1283L44.1044 15.1162C43.4605 14.9572 42.9052 14.8201 42.6162 14.7242C42.0013 14.5201 40.2984 13.0601 39.0292 12.4283C37.76 11.7964 36.2573 11.2517 33.6486 11.6629C31.04 12.0742 29.5492 13.4487 28.5243 15.4895C27.4995 17.5304 27.4995 20.7618 27.4995 22.6325C27.4995 24.6734 27.2432 25.1836 26.7308 26.204C26.2184 27.2245 24.6811 29.0102 23.6562 29.7755Z" fill="black"/>
<path d="M36.467 30.2857C36.672 28.8571 36.5524 25.7788 36.467 24.4183C35.3568 24.8434 33.1362 25.5065 31.8551 26.7142C30.5741 27.9219 30.0616 30.2857 30.0616 31.8164C30.0616 33.0578 30.3178 36.1532 30.0616 37.6838C29.8054 39.2145 28.8659 41.0002 28.2681 42.0206C28.4389 41.9356 28.9343 41.6635 29.5492 41.2553C30.3178 40.7451 32.88 38.4492 34.1611 36.4083C35.4422 34.3674 36.2108 32.0715 36.467 30.2857Z" fill="black"/>
<path d="M50.0465 18.2957C49.7903 17.2753 48.5092 16.51 47.2281 15.9998C46.4971 15.7086 45.2132 15.39 44.1535 15.1283C43.9827 15.3338 43.6411 15.8977 43.6411 16.51C43.6411 17.1222 44.0013 17.7375 44.1535 18.0406C44.3057 18.3437 45.019 19.061 45.019 19.061C45.2868 18.8668 45.5979 18.6899 45.947 18.5508C46.9719 18.1427 49.107 18.2107 50.0465 18.2957Z" fill="white"/>
<path d="M17.44 45.6126C17.013 44.167 16.7384 40.388 17.7632 36.9185C19.0443 32.5817 22.6313 30.5408 23.6562 29.7755C24.6811 29.0102 26.2184 27.2245 26.7308 26.204C27.2432 25.1836 27.4995 24.6734 27.4995 22.6325C27.4995 20.7618 27.4995 17.5304 28.5243 15.4895C29.5492 13.4487 31.04 12.0742 33.6486 11.6629C36.2573 11.2517 37.76 11.7964 39.0292 12.4283C40.2984 13.0601 42.0013 14.5201 42.6162 14.7242C42.9052 14.8201 43.4605 14.9572 44.1044 15.1162M17.44 45.6126C17.867 45.6126 19.7105 45.4391 22.3751 44.8268C25.0398 44.2145 27.4141 42.7009 28.2681 42.0206M17.44 45.6126C17.76 46.0918 18.8906 47.2248 19.3005 47.633C19.5514 47.8828 20.0481 48.3397 20.64 48.8068C21.257 49.2936 21.9775 49.7935 22.6314 50.1841C23.7299 50.8403 25.1935 51.3746 26.2184 51.7147C27.2432 52.0548 29.5492 52.48 32.1114 52.48C34.1611 52.48 36.2227 52.1917 37.76 51.6815C38.9898 51.2733 41.0789 50.4392 42.6162 49.4187M17.44 45.6126C16.8 44.8141 15.5598 43.0921 14.9449 41.2553C14.1762 38.9594 13.92 36.6634 13.92 35.3879C13.92 34.1123 13.92 29.5204 15.7135 26.9693M43.8973 20.5917C43.8973 21.1019 44.4097 24.4183 44.4097 24.9285C44.4097 25.4387 44.6659 27.4796 44.6659 29.7755C44.6659 32.0715 43.3849 35.8981 42.36 37.6838C41.3351 39.4696 40.8227 40.49 40.5665 42.5309C40.3103 44.5717 41.4191 46.5676 41.5914 46.8677C41.7636 47.1678 42.6162 48.8065 42.6162 49.4187M43.8973 20.5917C43.8973 20.2205 44.3041 19.5794 45.019 19.061M43.8973 20.5917C43.8973 20.5917 41.7888 20.3928 40.5665 20.8468C39.6821 21.1753 39.0292 21.357 38.0043 22.3774C36.9795 23.3978 36.7232 23.9931 36.467 24.4183M42.6162 49.4187C43.6411 48.6534 45.3395 47.2553 46.7157 45.337C47.9968 43.5513 49.7903 39.9798 50.0465 35.8981C50.3027 31.8164 49.0216 28.5 48.5092 26.9693M36.467 24.4183C36.5524 25.7788 36.672 28.8571 36.467 30.2857C36.2108 32.0715 35.4422 34.3674 34.1611 36.4083C32.88 38.4492 30.3178 40.7451 29.5492 41.2553C28.9343 41.6635 28.4389 41.9356 28.2681 42.0206M36.467 24.4183C35.3568 24.8434 33.1362 25.5065 31.8551 26.7142C30.5741 27.9219 30.0616 30.2857 30.0616 31.8164C30.0616 33.0578 30.3178 36.1532 30.0616 37.6838C29.8054 39.2145 28.8659 41.0002 28.2681 42.0206M44.1535 15.1283C45.2132 15.39 46.4971 15.7086 47.2281 15.9998C48.5092 16.51 49.7903 17.2753 50.0465 18.2957C49.107 18.2107 46.9719 18.1427 45.947 18.5508C45.5979 18.6899 45.2868 18.8668 45.019 19.061M44.1535 15.1283C43.9827 15.3338 43.6411 15.8977 43.6411 16.51C43.6411 17.1222 44.0013 17.7375 44.1535 18.0406C44.3057 18.3437 45.019 19.061 45.019 19.061M44.1535 15.1283L44.1044 15.1162M44.1535 15.1283C44.1371 15.1243 44.1207 15.1202 44.1044 15.1162" stroke="white" stroke-width="2.5" stroke-linecap="round" stroke-linejoin="round"/>
</svg>
