<svg width="256" height="256" viewBox="0 0 256 256" fill="none" xmlns="http://www.w3.org/2000/svg">
<g clip-path="url(#clip0_1_2)">
<mask id="mask0_1_2" style="mask-type:luminance" maskUnits="userSpaceOnUse" x="0" y="0" width="256" height="256">
<path d="M256 128C256 57.3075 198.692 0 128 0C57.3075 0 0 57.3075 0 128C0 198.692 57.3075 256 128 256C198.692 256 256 198.692 256 128Z" fill="white"/>
</mask>
<g mask="url(#mask0_1_2)">
<path d="M256 128C256 57.3075 198.692 0 128 0C57.3075 0 0 57.3075 0 128C0 198.692 57.3075 256 128 256C198.692 256 256 198.692 256 128Z" fill="black"/>
<path d="M77.4066 165.258C72.2186 169.126 54.0602 179.44 47.5751 201.357C42.387 218.89 43.7771 237.988 45.9388 245.294C48.1005 245.294 57.4325 244.417 70.9215 241.323C84.4106 238.229 96.4296 230.579 100.753 227.141C103.779 221.984 108.535 212.96 109.832 205.224C111.129 197.489 109.832 181.846 109.832 175.572C109.832 167.836 112.426 155.89 118.911 149.787C125.396 143.684 136.637 140.333 142.258 138.184C143.555 136.035 144.852 133.027 150.04 127.87C155.228 122.713 158.533 121.795 163.01 120.135C169.198 117.84 179.871 118.846 179.871 118.846C179.871 116.97 181.931 113.73 185.55 111.11C185.55 111.11 181.939 107.485 181.168 105.953C180.398 104.422 178.574 101.312 178.574 98.2177C178.574 95.1236 180.304 92.2736 181.168 91.2353L180.92 91.174C177.66 90.3707 174.849 89.6778 173.386 89.1932C170.273 88.1618 161.653 80.7831 155.228 77.59C148.803 74.397 141.196 71.6439 127.991 73.7223C114.785 75.8007 107.238 82.747 102.05 93.0609C96.862 103.375 96.862 119.705 96.862 129.159C96.862 139.473 95.565 142.052 92.9709 147.209C90.3769 152.366 82.5947 161.39 77.4066 165.258Z" fill="black"/>
<path d="M142.258 167.836C143.295 160.617 142.69 145.06 142.258 138.184C136.637 140.333 125.396 143.684 118.911 149.787C112.426 155.89 109.832 167.836 109.832 175.572C109.832 181.846 111.129 197.489 109.832 205.224C108.535 212.96 103.779 221.984 100.753 227.141C101.618 226.712 104.125 225.336 107.238 223.274C111.129 220.695 124.099 209.092 130.585 198.778C137.07 188.464 140.961 176.861 142.258 167.836Z" fill="black"/>
<path d="M211 107.242C209.703 102.086 203.218 98.2178 196.733 95.6393C193.032 94.1681 186.533 92.5576 181.168 91.2353C180.304 92.2736 178.574 95.1236 178.574 98.2177C178.574 101.312 180.398 104.422 181.168 105.953C181.939 107.485 185.55 111.11 185.55 111.11C186.905 110.129 188.48 109.234 190.248 108.532C195.436 106.469 206.244 106.813 211 107.242Z" fill="white"/>
<path d="M182.466 140.763C182.466 138.184 179.871 121.424 179.871 118.846C179.871 118.846 169.198 117.84 163.01 120.135C158.533 121.795 155.228 122.713 150.04 127.87C144.852 133.027 143.555 136.035 142.258 138.184C142.69 145.06 143.295 160.617 142.258 167.836C140.961 176.861 137.07 188.464 130.585 198.778C124.099 209.092 111.129 220.695 107.238 223.274C104.125 225.336 101.618 226.712 100.753 227.141C96.4296 230.579 84.4106 238.229 70.9215 241.323C57.4325 244.417 48.1005 245.294 45.9388 245.294C47.5587 247.716 53.282 253.442 55.3573 255.505C56.6274 256.767 59.1414 259.076 62.1379 261.436C65.2612 263.897 68.9088 266.423 72.2186 268.397C77.7794 271.713 85.1888 274.413 90.3769 276.132C95.565 277.851 107.238 280 120.208 280C130.585 280 141.021 278.543 148.803 275.964C155.029 273.902 165.604 269.686 173.386 264.529C173.386 261.435 169.07 253.154 168.198 251.637C167.326 250.12 161.713 240.034 163.01 229.72C164.307 219.406 166.901 214.249 172.089 205.224C177.277 196.2 183.763 176.861 183.763 165.258C183.763 153.655 182.466 143.341 182.466 140.763Z" fill="white"/>
<path d="M45.9388 245.294C43.7771 237.988 42.387 218.89 47.5751 201.357C54.0602 179.44 72.2186 169.126 77.4066 165.258C82.5947 161.39 90.3769 152.366 92.9709 147.209C95.565 142.052 96.862 139.473 96.862 129.159C96.862 119.705 96.862 103.375 102.05 93.0609C107.238 82.747 114.785 75.8007 127.991 73.7223C141.196 71.6439 148.803 74.397 155.228 77.59C161.653 80.7831 170.273 88.1618 173.386 89.1932C174.849 89.6778 177.66 90.3707 180.92 91.174M45.9388 245.294C48.1005 245.294 57.4325 244.417 70.9215 241.323C84.4106 238.229 96.4296 230.579 100.753 227.141M45.9388 245.294C47.5587 247.716 53.282 253.442 55.3573 255.505C56.6274 256.767 59.1414 259.076 62.1379 261.436C65.2612 263.897 68.9088 266.423 72.2186 268.397C77.7794 271.713 85.1888 274.413 90.3769 276.132C95.565 277.851 107.238 280 120.208 280C130.585 280 141.021 278.543 148.803 275.964C155.029 273.902 165.604 269.686 173.386 264.529C173.386 261.435 169.07 253.154 168.198 251.637C167.326 250.12 161.713 240.034 163.01 229.72C164.307 219.406 166.901 214.249 172.089 205.224C177.277 196.2 183.763 176.861 183.763 165.258C183.763 153.655 182.466 143.341 182.466 140.763C182.466 138.184 179.871 121.424 179.871 118.846M180.92 91.174L181.168 91.2353M180.92 91.174C181.002 91.1944 181.085 91.2148 181.168 91.2353M100.753 227.141C101.618 226.712 104.125 225.336 107.238 223.274C111.129 220.695 124.099 209.092 130.585 198.778C137.07 188.464 140.961 176.861 142.258 167.836C143.295 160.617 142.69 145.06 142.258 138.184M100.753 227.141C103.779 221.984 108.535 212.96 109.832 205.224C111.129 197.489 109.832 181.846 109.832 175.572C109.832 167.836 112.426 155.89 118.911 149.787C125.396 143.684 136.637 140.333 142.258 138.184M179.871 118.846C179.871 116.97 181.931 113.73 185.55 111.11M179.871 118.846C179.871 118.846 169.198 117.84 163.01 120.135C158.533 121.795 155.228 122.713 150.04 127.87C144.852 133.027 143.555 136.035 142.258 138.184M185.55 111.11C186.905 110.129 188.48 109.234 190.248 108.532C195.436 106.469 206.244 106.813 211 107.242C209.703 102.086 203.218 98.2178 196.733 95.6393C193.032 94.1681 186.533 92.5576 181.168 91.2353M185.55 111.11C185.55 111.11 181.939 107.485 181.168 105.953C180.398 104.422 178.574 101.312 178.574 98.2177C178.574 95.1236 180.304 92.2736 181.168 91.2353" stroke="white" stroke-width="6.5" stroke-linecap="round" stroke-linejoin="round"/>
</g>
<path d="M47.5751 201.357C54.0602 179.44 72.2186 169.126 77.4066 165.258C82.5947 161.39 90.3769 152.366 92.9709 147.209C95.565 142.052 96.862 139.473 96.862 129.159C96.862 119.705 96.862 103.375 102.05 93.0609C107.238 82.747 114.785 75.8007 127.991 73.7223C141.196 71.6439 148.803 74.397 155.228 77.59C161.653 80.7831 170.273 88.1618 173.386 89.1932" stroke="white" stroke-width="6.5" stroke-linecap="round" stroke-linejoin="round"/>
<path d="M83.6978 102.489L83.409 102.427C82.0699 102.131 81.0304 101.776 80.2903 101.362C79.5519 100.94 78.9913 100.447 78.6085 99.8847C78.2183 99.3205 77.8903 98.665 77.6245 97.9183C77.4401 97.406 77.2194 96.9363 76.9625 96.5092C76.6997 96.0731 76.3832 95.7068 76.013 95.4103C75.6354 95.1122 75.1873 94.9075 74.6688 94.7961C74.0837 94.6704 73.5469 94.6985 73.0584 94.8803C72.57 95.062 72.1571 95.3608 71.8199 95.7765C71.4842 96.1848 71.2551 96.6741 71.1326 97.2445C71.0196 97.7703 71.0271 98.295 71.1549 98.8183C71.2768 99.3327 71.534 99.7947 71.9264 100.204C72.313 100.605 72.8504 100.899 73.5387 101.085L72.6892 105.041C71.2898 104.701 70.1853 104.108 69.3757 103.26C68.5676 102.404 68.0411 101.392 67.7961 100.224C67.5528 99.048 67.5703 97.812 67.8488 96.5158C68.1526 95.1011 68.668 93.9101 69.395 92.9427C70.1235 91.9679 71.0114 91.2792 72.0588 90.8765C73.1003 90.4648 74.2469 90.3934 75.4986 90.6623C76.343 90.8437 77.0691 91.143 77.6768 91.5602C78.2862 91.97 78.7968 92.4788 79.2087 93.0864C79.6205 93.694 79.957 94.3823 80.218 95.1512C80.4595 95.8307 80.7388 96.406 81.0561 96.8771C81.3749 97.3407 81.7848 97.7232 82.2857 98.0245C82.7808 98.3168 83.4201 98.551 84.2036 98.7271L84.4925 98.7891L83.6978 102.489ZM91.0458 102.045C90.9027 102.711 90.5423 103.235 89.9649 103.614C89.3874 103.994 88.758 104.11 88.0766 103.964C87.41 103.821 86.8913 103.458 86.5207 102.874C86.1501 102.291 86.0364 101.666 86.1796 101C86.3212 100.34 86.6807 99.8209 87.2581 99.4413C87.8372 99.0543 88.46 98.9323 89.1266 99.0755C89.5784 99.1726 89.9648 99.3757 90.2859 99.6848C90.6085 99.9866 90.8411 100.347 90.9838 100.765C91.1206 101.174 91.1413 101.6 91.0458 102.045Z" fill="white"/>
<path d="M92.5006 79.8191L92.2643 79.6418C91.1719 78.8129 90.3765 78.0552 89.8781 77.3688C89.3842 76.6764 89.0813 75.9945 88.9692 75.3233C88.8511 74.6475 88.8277 73.915 88.899 73.1256C88.946 72.5831 88.9422 72.0642 88.8877 71.5687C88.8317 71.0627 88.6977 70.5975 88.4856 70.1733C88.2674 69.7445 87.9463 69.3709 87.5221 69.0527C87.0433 68.6936 86.5441 68.4943 86.0244 68.4549C85.5047 68.4154 85.0047 68.5139 84.5244 68.7502C84.0486 68.9804 83.6357 69.3289 83.2856 69.7955C82.9629 70.2258 82.7499 70.7053 82.6469 71.2341C82.5423 71.7523 82.5824 72.2795 82.7672 72.8159C82.9504 73.3417 83.3156 73.8334 83.8625 74.291L81.4349 77.5272C80.3062 76.6331 79.5518 75.6315 79.1716 74.5224C78.7959 73.4072 78.7415 72.2678 79.0082 71.1042C79.2795 69.9345 79.813 68.8194 80.6085 67.7589C81.4768 66.6014 82.4436 65.7356 83.5088 65.1614C84.5785 64.5812 85.6732 64.3275 86.7929 64.4004C87.9111 64.4626 88.9823 64.8778 90.0065 65.6461C90.6973 66.1644 91.2314 66.7402 91.6086 67.3735C91.9903 68.0009 92.241 68.6766 92.3607 69.4009C92.4803 70.1251 92.4976 70.891 92.4127 71.6986C92.3475 72.4168 92.3603 73.0562 92.4512 73.6168C92.5466 74.1714 92.7587 74.6903 93.0874 75.1737C93.4146 75.6464 93.8972 76.1268 94.535 76.6147L94.7713 76.792L92.5006 79.8191ZM99.3595 82.4924C98.9503 83.0378 98.4041 83.362 97.7207 83.465C97.0374 83.568 96.417 83.4103 95.8594 82.9921C95.314 82.583 94.9951 82.036 94.9028 81.3511C94.8104 80.6663 94.9688 80.0511 95.3779 79.5057C95.7825 78.9663 96.3265 78.6452 97.0098 78.5422C97.6977 78.4332 98.3144 78.5832 98.8598 78.9924C99.2295 79.2697 99.4953 79.6159 99.6574 80.0311C99.824 80.4402 99.8846 80.8644 99.8391 81.3038C99.7921 81.7326 99.6322 82.1288 99.3595 82.4924Z" fill="white"/>
<path d="M112.353 62.8163L112.25 62.5393C111.779 61.2515 111.52 60.1841 111.472 59.3372C111.43 58.4876 111.544 57.7502 111.813 57.125C112.079 56.4926 112.455 55.8637 112.942 55.2381C113.275 54.8072 113.552 54.3686 113.774 53.9224C114.001 53.4663 114.139 53.0025 114.19 52.531C114.239 52.0523 114.17 51.5644 113.985 51.0674C113.777 50.5064 113.465 50.0689 113.049 49.7547C112.633 49.4406 112.159 49.2531 111.627 49.1922C111.102 49.1287 110.567 49.1986 110.02 49.4019C109.516 49.5894 109.077 49.8777 108.705 50.2668C108.337 50.6462 108.085 51.1114 107.951 51.6626C107.821 52.204 107.862 52.815 108.075 53.4957L104.283 54.9057C103.817 53.5434 103.724 52.2929 104.003 51.1543C104.29 50.013 104.861 49.0251 105.714 48.1904C106.575 47.3531 107.626 46.7034 108.869 46.2413C110.225 45.737 111.506 45.5312 112.713 45.6241C113.927 45.7143 114.985 46.0928 115.887 46.7594C116.794 47.4162 117.471 48.3447 117.917 49.5447C118.218 50.3542 118.356 51.1273 118.331 51.8641C118.313 52.5982 118.159 53.3022 117.868 53.9762C117.577 54.6501 117.177 55.3039 116.669 55.9373C116.226 56.5062 115.891 57.0511 115.665 57.5718C115.445 58.0899 115.343 58.6411 115.358 59.2255C115.378 59.8001 115.524 60.4651 115.797 61.2204L115.9 61.4973L112.353 62.8163ZM116.678 68.7733C116.039 69.011 115.404 68.9884 114.774 68.7056C114.143 68.4228 113.706 67.9547 113.463 67.3015C113.226 66.6624 113.253 66.0298 113.546 65.4038C113.838 64.7777 114.304 64.3458 114.943 64.1082C115.575 63.8732 116.206 63.8971 116.837 64.1799C117.475 64.4601 117.912 64.9197 118.15 65.5587C118.311 65.9919 118.347 66.4269 118.259 66.8638C118.178 67.298 118 67.6877 117.724 68.0327C117.453 68.368 117.104 68.6149 116.678 68.7733Z" fill="white"/>
<path d="M135.609 58.0924L135.619 57.7971C135.671 56.4269 135.836 55.3408 136.113 54.5388C136.397 53.7372 136.782 53.098 137.267 52.6213C137.753 52.137 138.34 51.6978 139.028 51.3036C139.499 51.0311 139.922 50.7304 140.297 50.4017C140.679 50.0656 140.983 49.6891 141.209 49.272C141.435 48.8474 141.557 48.3701 141.575 47.8401C141.595 47.242 141.472 46.7187 141.206 46.2703C140.94 45.8219 140.573 45.4687 140.104 45.2107C139.642 44.9529 139.12 44.8144 138.537 44.7952C138 44.7775 137.485 44.878 136.992 45.0968C136.508 45.3082 136.099 45.6434 135.765 46.1024C135.44 46.554 135.246 47.1351 135.185 47.8456L131.142 47.7123C131.227 46.2749 131.615 45.0825 132.305 44.1351C133.004 43.1879 133.906 42.4899 135.012 42.0413C136.126 41.5929 137.346 41.3905 138.671 41.4342C140.117 41.4818 141.38 41.7774 142.462 42.3209C143.55 42.8646 144.386 43.616 144.968 44.5751C145.558 45.5269 145.832 46.6426 145.79 47.9222C145.762 48.7854 145.596 49.5531 145.294 50.2253C144.999 50.8977 144.589 51.4906 144.064 52.0039C143.539 52.5172 142.922 52.9706 142.211 53.3641C141.586 53.7225 141.069 54.0996 140.662 54.4955C140.262 54.8916 139.959 55.3629 139.751 55.9094C139.552 56.4486 139.435 57.1194 139.401 57.9217L139.391 58.217L135.609 58.0924ZM137.352 65.2446C136.67 65.2221 136.091 64.9605 135.615 64.4597C135.139 63.9589 134.912 63.3602 134.935 62.6636C134.958 61.9821 135.223 61.4072 135.731 60.9388C136.239 60.4705 136.834 60.2475 137.515 60.27C138.189 60.2922 138.764 60.5537 139.241 61.0545C139.724 61.5556 139.955 62.1468 139.933 62.8283C139.917 63.2901 139.786 63.7065 139.539 64.0773C139.299 64.4484 138.986 64.7413 138.6 64.956C138.222 65.1633 137.806 65.2595 137.352 65.2446Z" fill="white"/>
<path d="M159.457 63.0963L159.59 62.8327C160.216 61.6126 160.824 60.6974 161.413 60.087C162.008 59.48 162.627 59.0628 163.269 58.8355C163.913 58.6014 164.631 58.4507 165.42 58.3834C165.963 58.3351 166.473 58.241 166.951 58.101C167.44 57.9577 167.875 57.7446 168.256 57.4618C168.64 57.1723 168.952 56.791 169.191 56.3178C169.461 55.7838 169.57 55.2575 169.519 54.7388C169.467 54.2202 169.283 53.745 168.967 53.3132C168.657 52.8849 168.242 52.539 167.721 52.2756C167.241 52.0328 166.732 51.9067 166.193 51.8973C165.665 51.8846 165.153 52.016 164.657 52.2914C164.171 52.5635 163.75 53.0087 163.395 53.627L159.785 51.8005C160.469 50.5333 161.324 49.6159 162.35 49.0482C163.383 48.484 164.495 48.2318 165.687 48.2917C166.886 48.3551 168.077 48.686 169.26 49.2846C170.551 49.9379 171.572 50.739 172.323 51.6878C173.081 52.6401 173.522 53.6739 173.645 54.7891C173.779 55.901 173.556 57.0282 172.978 58.1705C172.588 58.9411 172.115 59.5674 171.557 60.0492C171.005 60.5344 170.384 60.899 169.691 61.143C168.999 61.387 168.248 61.5376 167.438 61.5947C166.719 61.6556 166.092 61.7797 165.556 61.9668C165.026 62.1574 164.552 62.4567 164.134 62.8646C163.725 63.2692 163.336 63.8281 162.967 64.5412L162.833 64.8048L159.457 63.0963ZM158.02 70.3161C157.411 70.0083 156.997 69.5269 156.776 68.8719C156.556 68.217 156.603 67.5786 156.918 66.9567C157.226 66.3483 157.709 65.939 158.367 65.7287C159.025 65.5184 159.659 65.5672 160.267 65.875C160.869 66.1794 161.28 66.6591 161.5 67.314C161.727 67.9724 161.687 68.6058 161.379 69.2141C161.17 69.6265 160.876 69.9486 160.495 70.1806C160.121 70.4159 159.714 70.5495 159.274 70.5813C158.843 70.6097 158.425 70.5213 158.02 70.3161Z" fill="white"/>
</g>
<defs>
<clipPath id="clip0_1_2">
<rect width="256" height="256" fill="white"/>
</clipPath>
</defs>
</svg>
