<svg width="256" height="256" viewBox="0 0 256 256" fill="none" xmlns="http://www.w3.org/2000/svg">
<g clip-path="url(#clip0_1_124)">
<rect width="256" height="256" rx="128" fill="white"/>
<path d="M77.4066 165.258C72.2186 169.126 54.0602 179.44 47.5751 201.357C42.387 218.89 43.7771 237.988 45.9388 245.294C48.1005 245.294 57.4325 244.417 70.9215 241.323C84.4106 238.229 96.4296 230.579 100.753 227.141C103.779 221.984 108.535 212.96 109.832 205.224C111.129 197.489 109.832 181.846 109.832 175.572C109.832 167.836 112.426 155.89 118.911 149.787C125.396 143.684 136.637 140.333 142.258 138.184C143.555 136.035 144.852 133.027 150.04 127.87C155.228 122.713 158.533 121.795 163.01 120.135C169.198 117.84 179.871 118.846 179.871 118.846C179.871 116.97 181.931 113.73 185.55 111.11C185.55 111.11 181.939 107.485 181.168 105.953C180.398 104.422 178.574 101.312 178.574 98.2177C178.574 95.1236 180.304 92.2736 181.168 91.2353L180.92 91.174C177.66 90.3707 174.849 89.6778 173.386 89.1932C170.273 88.1618 161.653 80.7831 155.228 77.59C148.803 74.397 141.196 71.6439 127.991 73.7223C114.785 75.8007 107.238 82.747 102.05 93.0609C96.862 103.375 96.862 119.705 96.862 129.159C96.862 139.473 95.565 142.052 92.9709 147.209C90.3769 152.366 82.5947 161.39 77.4066 165.258Z" fill="black"/>
<path d="M142.258 167.836C143.295 160.617 142.69 145.06 142.258 138.184C136.637 140.333 125.396 143.684 118.911 149.787C112.426 155.89 109.832 167.836 109.832 175.572C109.832 181.846 111.129 197.489 109.832 205.224C108.535 212.96 103.779 221.984 100.753 227.141C101.618 226.712 104.125 225.336 107.238 223.274C111.129 220.695 124.099 209.092 130.585 198.778C137.07 188.464 140.961 176.861 142.258 167.836Z" fill="black"/>
<path d="M211 107.242C209.703 102.086 203.218 98.2178 196.733 95.6393C193.032 94.1681 186.533 92.5576 181.168 91.2353C180.304 92.2736 178.574 95.1236 178.574 98.2177C178.574 101.312 180.398 104.422 181.168 105.953C181.939 107.485 185.55 111.11 185.55 111.11C186.905 110.129 188.48 109.234 190.248 108.532C195.436 106.469 206.244 106.813 211 107.242Z" fill="black"/>
<path d="M182.466 140.763C182.466 138.184 179.871 121.424 179.871 118.846C179.871 118.846 169.198 117.84 163.01 120.135C158.533 121.795 155.228 122.713 150.04 127.87C144.852 133.027 143.555 136.035 142.258 138.184C142.69 145.06 143.295 160.617 142.258 167.836C140.961 176.861 137.07 188.464 130.585 198.778C124.099 209.092 111.129 220.695 107.238 223.274C104.125 225.336 101.618 226.712 100.753 227.141C96.4296 230.579 84.4106 238.229 70.9215 241.323C57.4325 244.417 48.1005 245.294 45.9388 245.294C47.5587 247.716 53.282 253.442 55.3573 255.505C56.6274 256.767 59.1414 259.076 62.1379 261.436C65.2612 263.897 68.9088 266.423 72.2186 268.397C77.7794 271.713 85.1888 274.413 90.3769 276.132C95.565 277.851 107.238 280 120.208 280C130.585 280 141.021 278.543 148.803 275.964C155.029 273.902 165.604 269.686 173.386 264.529C173.386 261.435 169.07 253.154 168.198 251.637C167.326 250.12 161.713 240.034 163.01 229.72C164.307 219.406 166.901 214.249 172.089 205.224C177.277 196.2 183.763 176.861 183.763 165.258C183.763 153.655 182.466 143.341 182.466 140.763Z" fill="white"/>
<path d="M45.9388 245.294C43.7771 237.988 42.387 218.89 47.5751 201.357C54.0602 179.44 72.2186 169.126 77.4066 165.258C82.5947 161.39 90.3769 152.366 92.9709 147.209C95.565 142.052 96.862 139.473 96.862 129.159C96.862 119.705 96.862 103.375 102.05 93.0609C107.238 82.747 114.785 75.8007 127.991 73.7223C141.196 71.6439 148.803 74.397 155.228 77.59C161.653 80.7831 170.273 88.1618 173.386 89.1932C174.849 89.6778 177.66 90.3707 180.92 91.174M45.9388 245.294C48.1005 245.294 57.4325 244.417 70.9215 241.323C84.4106 238.229 96.4296 230.579 100.753 227.141M45.9388 245.294C47.5587 247.716 53.282 253.442 55.3573 255.505C56.6274 256.767 59.1414 259.076 62.1379 261.436C65.2612 263.897 68.9088 266.423 72.2186 268.397C77.7794 271.713 85.1888 274.413 90.3769 276.132C95.565 277.851 107.238 280 120.208 280C130.585 280 141.021 278.543 148.803 275.964C155.029 273.902 165.604 269.686 173.386 264.529C173.386 261.435 169.07 253.154 168.198 251.637C167.326 250.12 161.713 240.034 163.01 229.72C164.307 219.406 166.901 214.249 172.089 205.224C177.277 196.2 183.763 176.861 183.763 165.258C183.763 153.655 182.466 143.341 182.466 140.763C182.466 138.184 179.871 121.424 179.871 118.846M179.871 118.846C179.871 116.97 181.931 113.73 185.55 111.11M179.871 118.846C179.871 118.846 169.198 117.84 163.01 120.135C158.533 121.795 155.228 122.713 150.04 127.87C144.852 133.027 143.555 136.035 142.258 138.184M142.258 138.184C142.69 145.06 143.295 160.617 142.258 167.836C140.961 176.861 137.07 188.464 130.585 198.778C124.099 209.092 111.129 220.695 107.238 223.274C104.125 225.336 101.618 226.712 100.753 227.141M142.258 138.184C136.637 140.333 125.396 143.684 118.911 149.787C112.426 155.89 109.832 167.836 109.832 175.572C109.832 181.846 111.129 197.489 109.832 205.224C108.535 212.96 103.779 221.984 100.753 227.141M181.168 91.2353C186.533 92.5576 193.032 94.1681 196.733 95.6393C203.218 98.2178 209.703 102.086 211 107.242C206.244 106.813 195.436 106.469 190.248 108.532C188.48 109.234 186.905 110.129 185.55 111.11M181.168 91.2353C180.304 92.2736 178.574 95.1236 178.574 98.2177C178.574 101.312 180.398 104.422 181.168 105.953C181.939 107.485 185.55 111.11 185.55 111.11M181.168 91.2353L180.92 91.174M181.168 91.2353C181.085 91.2148 181.002 91.1944 180.92 91.174" stroke="black" stroke-width="6.5" stroke-linecap="round" stroke-linejoin="round"/>
</g>
<defs>
<clipPath id="clip0_1_124">
<rect width="256" height="256" rx="128" fill="white"/>
</clipPath>
</defs>
</svg>
